<svg width="728" height="155" viewBox="0 0 728 155" fill="none" xmlns="http://www.w3.org/2000/svg">
<path d="M195 44.4999V89.0999H205H215V58.4999V27.8999L229.3 45.3999C237.1 54.8999 248.5 68.6999 254.5 75.8999L265.5 89.0999L275.5 88.8999L285.5 88.5999V44.5999V0.599854H276H266.5L266 30.9999L265.5 61.3999L259.9 54.9999C256.9 51.4999 245.4 37.7999 234.5 24.5999L214.7 0.599854L204.8 0.29985L195 -0.000144958V44.4999Z" fill="black"/>
<path d="M438 44.5999V89.0999H447.5H457V44.6999V0.29985L447.5 0.199852L438 -0.000144958V44.5999Z" fill="black"/>
<path d="M590 0.79985C590 1.29985 589.9 21.2999 589.7 45.2999L589.5 89.0999H599.3H609V44.5999V0.0998535H599.5C594.3 0.0998535 590 0.399849 590 0.79985Z" fill="black"/>
<path d="M677 15.5999C677 24.0999 676.9 31.0999 676.8 31.0999C676.6 31.0999 674 30.0999 671 28.8999C666.5 27.0999 663.5 26.6999 654 26.5999C643.5 26.5999 642 26.8999 637 29.2999C629.3 33.0999 624.9 36.9999 621.5 43.1999C618.8 48.0999 618.5 49.3999 618.5 58.0999C618.5 65.9999 618.9 68.2999 620.8 71.7999C624.3 78.3999 628.7 82.7999 634.8 85.7999C640.2 88.4999 641.1 88.5999 655 88.5999C666.4 88.5999 670.3 88.1999 673.3 86.8999C677.7 84.8999 678.5 84.7999 678.6 86.0999C678.7 86.5999 678.8 87.4999 678.9 88.0999C678.9 88.6999 682.6 89.0999 687.5 89.0999H696V44.5999V0.0998535H686.5H677V15.5999ZM664.1 40.1999C672.4 42.9999 678 49.7999 678 57.0999C678 63.0999 675.4 67.8999 670.2 71.5999C666.5 74.0999 664.7 74.5999 658.5 74.8999C652.4 75.1999 650.3 74.8999 646.5 73.0999C634.8 67.3999 632.6 52.2999 642.4 44.4999C648.8 39.3999 656.9 37.7999 664.1 40.1999Z" fill="black"/>
<path d="M39.2002 8.09985C40.0002 18.9999 44.8002 27.7999 55.3002 37.6999C59.9002 42.0999 66.5002 47.5999 70.1002 49.9999C73.6002 52.3999 79.4002 56.3999 83.0002 58.8999C101 71.4999 150.8 105.1 151.4 105.1C151.7 105.1 152 81.6999 152 53.0999V1.09985H95.4002H38.7002L39.2002 8.09985Z" fill="#FF0000"/>
<path d="M296.2 47.2999C296.5 69.1999 296.6 69.6999 299.2 74.6999C302.6 81.1999 307.5 85.3999 313.9 87.5999C318.1 88.9999 322 89.1999 335.3 88.8999C351 88.5999 351.7 88.4999 356.8 85.6999C359.6 84.0999 363.1 81.2999 364.5 79.4999C369.4 73.0999 370 69.4999 370 46.4999V25.0999H360.6H351.2L350.8 44.2999C350.5 61.3999 350.3 63.9999 348.5 66.9999C345.7 71.7999 340.8 74.0999 333.5 74.0999C326.2 74.0999 321.4 71.8999 318.3 67.1999C316.1 63.9999 316 62.8999 316 44.4999V25.0999H305.9H295.8L296.2 47.2999Z" fill="black"/>
<path d="M414.6 26.1999C399.2 28.6999 384.6 42.6999 381 58.2999C380.5 60.6999 380 68.5999 380 75.7999V89.0999H390H400V73.7999C400 61.1999 400.4 57.8999 401.9 54.4999C405.5 46.5999 414.7 41.0999 424.4 41.0999H428V33.0999V25.0999L423.8 25.1999C421.4 25.2999 417.3 25.6999 414.6 26.1999Z" fill="black"/>
<path d="M472 37.1999L462 49.2999V55.0999C462 60.3999 463.5 64.0999 467 67.0999C467.3 67.3999 471.3 72.3999 475.9 78.2999L484.1 89.0999H495.6H507.2L505.3 86.6999C504.3 85.3999 498.6 78.3999 492.5 71.0999C486.5 63.7999 480.9 56.9999 480.1 55.9999C478.9 54.2999 479.4 53.3999 485.6 46.4999C496.2 34.6999 503 26.6999 503 25.7999C503 25.3999 498.3 25.0999 492.5 25.0999H482.1L472 37.1999Z" fill="black"/>
<path d="M532 26.3999C525 27.9999 516.5 32.2999 512.1 36.3999C503.7 44.3999 501.3 59.1999 506.8 69.9999C510.1 76.6999 517.5 82.8999 525.7 86.1999C530.9 88.2999 533.2 88.4999 547 88.5999C560.8 88.5999 563.2 88.2999 568.5 86.2999C571.8 84.9999 575.4 83.3999 576.4 82.5999C578.2 81.1999 578.2 80.9999 574.9 75.5999C573.1 72.5999 571.2 70.0999 570.8 70.0999C570.4 70.0999 568.6 70.9999 566.8 71.9999C562.7 74.3999 552.8 77.0999 548 77.0999C539.1 77.0999 528.9 71.6999 525.5 65.1999C520.5 55.3999 524.5 43.4999 534.5 38.9999C539.7 36.5999 549.3 36.4999 554 38.8999C557.5 40.5999 562 46.1999 562 48.6999C562 49.7999 559.7 50.0999 551.7 50.0999H541.4L539.2 54.5999C538 57.0999 537 59.3999 537 59.5999C537 59.8999 546.6 60.0999 558.3 60.0999H579.5L579.3 53.7999C579.1 50.3999 578.3 45.6999 577.4 43.3999C575.4 37.9999 567 30.1999 560.4 27.6999C554.2 25.3999 539.4 24.6999 532 26.3999Z" fill="black"/>
<path d="M708 57.0999V89.0999H718H728L727.8 57.2999L727.5 25.5999L717.8 25.2999L708 24.9999V57.0999Z" fill="black"/>
<path d="M0 102V154.1H56.4C89.6 154.1 113.1 153.7 113.4 153.2C113.8 152.7 113.6 149 113 145C110.6 128 101.1 117.6 66.5 93.9999C37.2 73.9999 3.1 51.0999 1.6 50.4999C0.1 49.8998 0 54.4999 0 102Z" fill="#FF0000"/>
<path d="M197 130C197 152.3 197.1 153.1 199 153.1C200.9 153.1 200.9 152.4 200.7 130.4C200.5 109.6 200.3 107.6 198.8 107.3C197.1 107 197 108.6 197 130Z" fill="black"/>
<path d="M340.7 107.8C339.8 108.6 339.8 145.8 340.6 148.9C341.7 152.7 350 156 350 152.6C350 151.8 349.2 151.1 348.2 151.1C344.3 151.1 344 149.4 344 127.9C344 111.2 343.7 107.1 342.7 107.1C341.9 107.1 341 107.4 340.7 107.8Z" fill="black"/>
<path d="M428 130.1C428 149 428.2 153.1 429.4 153.1C430.4 153.1 430.9 150.8 431.2 143.3C431.5 137.1 432.2 132.5 433.2 130.6C437 123.5 451.3 119.9 456.3 124.9C458.3 127 458.5 128.3 458.8 140.1C459.1 150.5 459.4 153.1 460.6 153.1C461.7 153.1 462 150.7 462 140.7C462 133.8 461.6 127.1 461 125.7C459.7 122.2 455.1 120.1 448.6 120.1C441.8 120.1 438.4 121.3 434.3 125.4L431 128.5V117.8C431 109 430.7 107.1 429.5 107.1C428.2 107.1 428 110.3 428 130.1Z" fill="black"/>
<path d="M212.2 127.3C204.3 134.8 203 136.2 203 137.2C203 138.7 220.7 153.1 222.5 153.1C224.7 153 224.5 152.9 212 141.7L206.5 136.8L214.8 129.2C219.3 124.9 223 121.2 223 120.8C223 118.5 218.8 121 212.2 127.3Z" fill="black"/>
<path d="M232.7 120.7C232.3 121.1 232 126.3 232 132.3C232 144.9 233.3 149.1 238.2 152.1C242.4 154.6 252.6 154.8 257.5 152.5C263.5 149.7 264.4 147.1 264.5 133.1C264.5 122.3 264.3 120.6 262.8 120.3C261.4 120 261.1 121.5 260.8 132.5C260.5 144.5 260.4 145.2 257.9 147.7C253.1 152.4 240.6 151.9 237.8 146.8C237.1 145.6 236.3 139.3 236 132.7C235.5 121.7 234.7 118.7 232.7 120.7Z" fill="black"/>
<path d="M274.7 120.7C274.3 121.1 274 128.6 274 137.3C274 152.4 274.1 153.1 276 153.1C277.9 153.1 278 152.4 278 143.5C278 135.6 278.4 133.2 280.1 130.1C282.5 125.9 286.6 123.1 290.4 123.1C292 123.1 293 122.5 293 121.6C293 118 283.9 120.9 280.2 125.6L278.1 128.2L277.8 124.5C277.5 120.9 276.1 119.3 274.7 120.7Z" fill="black"/>
<path d="M301.7 120.7C301.3 121.1 301 126.7 301 133.1C301 143.6 301.2 145.1 303.3 148.2C306.6 153.2 309.4 154.2 318 153.9C326.1 153.6 329.8 151.8 331.9 147.3C332.5 146 333 139.4 333 132.6C333 122.5 332.7 120.1 331.6 120.1C330.5 120.1 330.1 122.6 329.8 132C329.5 142.3 329.2 144.4 327.4 146.8C323.7 151.7 313.1 152.4 307.8 148.2C305.7 146.4 305.5 145.4 305 133.5C304.5 121.7 303.8 118.7 301.7 120.7Z" fill="black"/>
<path d="M356.7 120.7C355.5 121.9 356 142.4 357.3 146C359.3 151.8 362.9 153.6 372.3 153.6C386.5 153.6 389.3 149.7 388.8 130.9C388.6 122.5 388.2 120.6 387 120.6C385.8 120.6 385.4 122.9 384.9 133.1C384.6 140 384.2 145.7 384.1 145.8C380.1 152 365.1 152.6 361.8 146.8C361.1 145.6 360.3 139.4 360 132.7C359.5 121.7 358.7 118.7 356.7 120.7Z" fill="black"/>
<path d="M399.7 121.7C394.6 124.4 393.9 131.5 398.3 134.4C399.5 135.2 403.4 136.8 407 138C410.6 139.2 414.6 140.8 415.8 141.7C418.6 143.7 418.6 147.5 415.8 149.5C412.6 151.8 403.4 151.6 398.7 149.2C396.4 148 394.8 147.7 394.4 148.3C392.8 150.8 400.5 154.1 408.1 154.1C417.8 154.1 423.8 148.5 420.6 142.4C419.1 139.5 415.5 137.4 407.5 135C401.8 133.3 399 131.2 399 128.6C399 123.5 406.6 120.9 414 123.5C419.5 125.4 420 125.4 420 123.7C420 120.3 405 118.8 399.7 121.7Z" fill="black"/>
</svg>
