<svg xmlns="http://www.w3.org/2000/svg" width="260" height="377" fill="none"><g clip-path="url(#a)"><path stroke="#7F7F7F" stroke-linecap="round" stroke-linejoin="round" stroke-miterlimit="10" stroke-width=".819" d="m.968 340.844 4.536-1.929M.968 331.597l4.536-1.929M.968 322.358l4.536-1.929M.968 313.12l4.536-1.929M.968 303.881l4.536-1.937M.968 294.634l4.536-1.929M.968 285.395l4.536-1.928M.968 276.157l4.536-1.938M.968 266.91l4.536-1.929M.968 257.671l4.536-1.929M.968 248.433l4.536-1.929M.968 239.194l4.536-1.937M.968 229.947l4.536-1.929M.968 220.708l4.536-1.928M.968 211.461l4.536-1.92M.968 202.223l4.536-1.929M.968 192.984l4.536-1.928M.968 183.746l4.536-1.929M.968 174.499l4.536-1.929M.968 165.26l4.536-1.929M.968 156.022l4.536-1.929M.968 146.774l4.536-1.92M.968 137.536l4.536-1.929M.968 128.297l4.536-1.928M.968 119.059l4.536-1.929M.968 109.812l4.536-1.929M.968 100.573l4.536-1.929M.968 91.335l4.536-1.929M.968 82.096l1.55-.67M.968 337.761l4.536-1.928M.968 328.523l4.536-1.929M.968 319.276l4.536-1.929M.968 310.037l4.536-1.928M.968 300.799l4.536-1.938M.968 291.56l4.536-1.937M.968 282.313l4.536-1.929M.968 273.074l4.536-1.928M.968 263.836l4.536-1.937M.968 254.589l4.536-1.929M.968 245.35l4.536-1.928M.968 236.112l4.536-1.929M.968 226.865l4.536-1.929M.968 217.626l4.536-1.929M.968 208.388l4.536-1.929M.968 199.14l4.536-1.928M.968 189.902l4.536-1.929M.968 180.663l4.536-1.928M.968 171.416l4.536-1.92M.968 162.178l4.536-1.929M.968 152.939l4.536-1.929M.968 143.701l4.536-1.929M.968 134.453l4.536-1.919M.968 125.215l4.536-1.929M.968 115.976l4.536-1.928M.968 106.738l4.536-1.929M.968 97.49l4.536-1.928M.968 88.252l4.536-1.928"/><path stroke="#000" stroke-linecap="round" stroke-linejoin="round" stroke-miterlimit="10" stroke-width=".819" d="M.968 81.427v261.548M5.503 342.975V123.762M5.503 119.226v-37.8M.968 81.427H.906M.906 342.975h.062"/><path stroke="#7F7F7F" stroke-linecap="round" stroke-linejoin="round" stroke-miterlimit="10" stroke-width=".819" d="m18.511 74.628 10.657-4.536M.906 72.875l6.535-2.783M32.999 74.628l5.76-2.448M11.263 74.628l10.665-4.536M24.245 81.427 34.9 76.89M2.518 81.427l10.656-4.536M38.723 81.427l.035-.009M16.997 81.427l10.665-4.536M.906 79.031l5.029-2.14"/><path stroke="#000" stroke-linecap="round" stroke-linejoin="round" stroke-miterlimit="10" stroke-width=".819" d="M38.758 74.628H.906M38.758 76.891H.906M38.758 70.092H.906M.906 81.427h.062M5.503 81.427h33.255M38.759 76.891v-2.263"/><path stroke="#7F7F7F" stroke-linecap="round" stroke-linejoin="round" stroke-miterlimit="10" stroke-width=".819" d="m45.566 26.164 1.559-.67M45.962 81.427l4.14-1.753M45.566 72.365l4.536-1.93M45.566 63.126l4.536-1.929M45.566 53.879l4.536-1.929M45.566 44.64l4.536-1.928M45.566 35.402l4.536-1.929M45.566 78.52l4.536-1.92M45.566 69.282l4.536-1.929M45.566 60.044l4.536-1.929M45.566 50.805l4.536-1.928M45.566 41.558l4.536-1.929M45.566 32.32l4.536-1.93M38.759 75.262l4.535-1.937M38.759 81.418l4.535-1.929M38.759 72.18l4.535-1.929"/><path stroke="#000" stroke-linecap="round" stroke-linejoin="round" stroke-miterlimit="10" stroke-width=".819" d="M50.102 25.494h-4.536M45.566 81.427V69.282M43.294 81.427V69.282M38.759 69.282v.81M38.759 74.628v2.263M45.566 81.427h-2.272M43.294 81.427H38.76M50.102 81.427V36.829M50.102 32.293V30.03"/><path stroke="#7F7F7F" stroke-linecap="round" stroke-linejoin="round" stroke-miterlimit="10" stroke-width=".819" d="m254.52 29.695 4.209-1.788M107.373 36.829l10.665-4.536M87.892 35.878l8.42-3.585M100.134 36.829l10.665-4.536M87.892 32.804l1.18-.51M237.742 36.829l9.644-4.096M216.016 36.829l10.656-4.536M194.289 36.829l10.665-4.536M172.553 36.829l10.674-4.536M150.827 36.829l10.665-4.536M230.503 36.829l10.656-4.536M208.776 36.829l10.657-4.536M187.041 36.829l10.665-4.536M165.314 36.829l10.665-4.536M143.587 36.829l10.666-4.536M247.386 32.733l1.021-.44M101.64 30.03l10.665-4.536M87.892 26.639l2.686-1.145M116.127 30.03l4.65-1.973M94.4 30.03l10.666-4.536M253.736 30.03l.458-.194M232.009 30.03l10.665-4.536M210.282 30.03l10.665-4.536M188.555 30.03l10.666-4.536M166.829 30.03l10.665-4.536M145.102 30.03l10.656-4.536M246.496 30.03l7.698-3.268M224.77 30.03l10.656-4.536M203.043 30.03l10.665-4.536M181.307 30.03l10.666-4.536M159.581 30.03l10.665-4.536M143.455 27.652l5.064-2.158M254.194 29.836l.325-.14M254.194 26.762l2.968-1.268"/><path stroke="#000" stroke-linecap="round" stroke-linejoin="round" stroke-miterlimit="10" stroke-width=".819" d="M254.194 32.293V30.03M251.921 36.829v-4.536M87.892 32.293h32.885M143.455 32.293h108.466M87.892 30.03h32.885M143.455 30.03h110.739M87.892 36.829h1.4M87.892 32.293v4.536M87.892 30.03v2.263M87.892 29.836v.194M87.892 25.494h1.4M87.892 25.494v4.342M50.102 36.829h-1.4M50.102 32.293v4.536M50.102 30.03v2.263M50.102 29.836v.194M50.102 25.494h-1.4M50.102 25.494v4.342M258.729 25.494H143.455M120.777 25.494H92.428M87.892 36.829h32.885M143.455 36.829h23.805M171.796 36.829h75.59"/><path stroke="#7F7F7F" stroke-linecap="round" stroke-linejoin="round" stroke-miterlimit="10" stroke-width=".819" d="M51.608 25.494c0-9.22 3.663-18.063 10.18-24.589"/><path fill="#fff" fill-rule="evenodd" d="M50.102 29.836h1.506v-4.342h-1.506zM87.892 25.494h-1.515v4.342h1.515z" clip-rule="evenodd"/><path stroke="#7F7F7F" stroke-linecap="round" stroke-linejoin="round" stroke-miterlimit="10" stroke-width=".819" d="M50.102 29.836h1.506M51.608 29.836v-4.342M51.608 25.494h-1.506M50.102 25.494v4.342M87.892 25.494h-1.515M86.377 25.494v4.342M86.377 29.836h1.515M87.892 29.836v-4.342M86.378 25.494 61.787.905M50.102 25.494v4.342M50.102 25.494v4.342M50.102 29.836v.194M50.102 30.03v2.263M50.102 32.293v4.536M50.102 25.494h-1.4M50.102 25.494h-1.4M50.102 29.836v.194M50.102 30.03v2.263M50.102 32.293v4.536M50.102 36.829h-1.4M50.102 36.829h-1.4M87.892 25.494v4.342M87.892 25.494v4.342M87.892 29.836v.194M87.892 30.03v2.263M87.892 32.293v4.536M87.892 25.494h1.4M87.892 25.494h1.4M87.892 29.836v.194M87.892 30.03v2.263M87.892 32.293v4.536M87.892 36.829h1.4M87.892 36.829h1.4M235.584 65.469l.696-.29M235.294 65.6l.291-.122M239.565 119.226l.264-.114M235.294 111.802l4.536-1.929M235.294 102.563l4.536-1.928M235.294 93.325l4.536-1.929M235.294 84.078l4.536-1.929M235.294 74.84l4.536-1.93M235.294 117.967l4.536-1.929M235.294 108.72l4.536-1.929M235.294 99.481l4.536-1.929M235.294 90.243l4.536-1.929M235.294 80.995l4.536-1.92M235.294 71.757l4.536-1.929"/><path stroke="#000" stroke-linecap="round" stroke-linejoin="round" stroke-miterlimit="10" stroke-width="1.136" d="M235.294 65.178h4.536M239.829 119.226v-5.671M239.829 109.019v-18.9M239.829 85.584V79.92M239.829 75.385v-5.671M235.294 65.178v54.048"/><path stroke="#7F7F7F" stroke-linecap="round" stroke-linejoin="round" stroke-miterlimit="10" stroke-width=".819" d="m242.815 90.12 4.571-1.947M239.829 88.314l6.403-2.73"/><path stroke="#000" stroke-linecap="round" stroke-linejoin="round" stroke-miterlimit="10" stroke-width="1.136" d="M247.386 85.584h-7.557M239.829 90.12h7.557"/><path stroke="#7F7F7F" stroke-linecap="round" stroke-linejoin="round" stroke-miterlimit="10" stroke-width=".819" d="m245.078 79.92 2.308-.985M239.829 79.076l7.557-3.224"/><path stroke="#000" stroke-linecap="round" stroke-linejoin="round" stroke-miterlimit="10" stroke-width="1.136" d="M247.386 75.385h-7.557M239.829 79.92h7.557"/><path stroke="#7F7F7F" stroke-linecap="round" stroke-linejoin="round" stroke-miterlimit="10" stroke-width=".819" d="m167.26 57.569 4.536-1.929M167.26 48.33l4.536-1.928M167.26 39.092l4.536-1.938M167.26 54.487l4.536-1.93M167.26 45.248l4.536-1.929M167.26 113.017l4.536-1.928M167.26 103.779l4.536-1.938M167.26 94.532l4.536-1.93M167.26 119.173l4.536-1.928M167.26 109.935l4.536-1.929M167.26 100.696l4.536-1.937M167.26 91.458l.458-.203"/><path stroke="#000" stroke-linecap="round" stroke-linejoin="round" stroke-miterlimit="10" stroke-width="1.136" d="M171.796 61.021v-1.4M171.611 61.021h.185M167.26 61.021v-1.4M167.26 61.021h4.351M171.796 91.256v1.4M171.611 91.256h.185M167.26 91.256v1.4M167.26 91.256h4.351M167.26 36.829V61.02M167.26 91.256v27.97M171.796 119.226v-27.97M171.796 61.021V36.83"/><path stroke="#7F7F7F" stroke-linecap="round" stroke-linejoin="round" stroke-miterlimit="10" stroke-width=".819" d="M167.26 89.75c-15.033 0-27.213-12.18-27.213-27.214"/><path fill="#fff" fill-rule="evenodd" d="M171.611 91.256v-1.507h-4.351v1.507zM167.26 61.021v1.515h4.351v-1.515z" clip-rule="evenodd"/><path stroke="#7F7F7F" stroke-linecap="round" stroke-linejoin="round" stroke-miterlimit="10" stroke-width=".819" d="M171.611 91.256v-1.507M171.611 89.75h-4.351M167.26 89.75v1.505M167.26 91.256h4.351M167.26 61.021v1.515M167.26 62.536h4.351M171.611 62.536v-1.515M171.611 61.021h-4.351M167.26 62.536h-27.213M167.26 91.256h4.351M167.26 91.256h4.351M171.611 91.256h.185M167.26 91.256v1.4M167.26 91.256v1.4M171.611 91.256h.185M171.796 91.256v1.4M171.796 91.256v1.4M167.26 61.021h4.351M167.26 61.021h4.351M171.611 61.021h.185M167.26 61.021v-1.4M167.26 61.021v-1.4M171.611 61.021h.185M171.796 61.021v-1.4M171.796 61.021v-1.4M128.712 268.028l4.536-1.929M128.712 258.79l4.536-1.938M128.712 249.542l4.536-1.928M128.712 240.304l4.536-1.929M128.712 231.065l4.536-1.928M128.712 221.818l4.536-1.929M128.712 212.58l4.536-1.929M128.712 203.341l4.536-1.928M128.712 194.094l4.536-1.92M128.712 184.855l4.536-1.928M128.712 175.617l4.536-1.929M128.712 166.379l4.536-1.929M128.712 157.131l4.536-1.928M128.712 147.893l4.536-1.929M128.712 138.654l4.536-1.928M128.712 129.407l4.536-1.92M131.372 273.048l1.876-.793M128.712 264.946l4.536-1.929M128.712 255.707l4.536-1.928M128.712 246.469l4.536-1.938M128.712 237.222l4.536-1.929M128.712 227.983l4.536-1.929M128.712 218.736l4.536-1.92M128.712 209.497l4.536-1.928M128.712 200.259l4.536-1.929M128.712 191.02l4.536-1.928M128.712 181.773l4.536-1.929M128.712 172.535l4.536-1.929M128.712 163.296l4.536-1.929M128.712 154.058l4.536-1.929M128.712 144.81l4.536-1.928M128.712 135.572l4.536-1.929M128.712 126.334l4.536-1.929"/><path stroke="#000" stroke-linecap="round" stroke-linejoin="round" stroke-miterlimit="10" stroke-width="1.136" d="M128.712 123.762v149.286M133.248 273.048V123.762"/><path stroke="#7F7F7F" stroke-linecap="round" stroke-linejoin="round" stroke-miterlimit="10" stroke-width=".819" d="m254.194 353.279 4.535-1.928M254.194 344.032l4.535-1.929M254.194 334.793l4.535-1.928M254.194 325.555l4.535-1.929M254.194 316.308l4.535-1.92M254.194 307.069l4.535-1.928M254.194 297.831l4.535-1.929M254.194 288.592l4.535-1.937M254.194 279.345l4.535-1.929M254.194 270.107l4.535-1.929M254.194 260.868l4.535-1.929M254.194 251.63l4.535-1.938M254.194 242.382l4.535-1.928M254.194 233.144l4.535-1.929M254.194 223.905l4.535-1.937M254.194 214.658l4.535-1.929M254.194 205.42l4.535-1.929M254.194 196.172l4.535-1.92M254.194 186.934l4.535-1.929M254.194 177.695l4.535-1.928M254.194 168.457l4.535-1.929M254.194 159.21l4.535-1.929M254.194 149.971l4.535-1.929M254.194 140.733l4.535-1.929M254.194 131.494l4.535-1.928M254.194 122.247l4.535-1.929M254.194 113.009l4.535-1.929M254.194 103.77l4.535-1.929M254.194 94.523l4.535-1.92M254.194 85.284l4.535-1.928M254.194 76.046l4.535-1.929M254.194 66.807l4.535-1.937M254.194 57.56l4.535-1.928M254.194 48.322l4.535-1.93M254.194 39.083l4.535-1.937M257.346 358.088l1.383-.581M254.194 350.197l4.535-1.929M254.194 340.958l4.535-1.928M254.194 331.711l4.535-1.929M254.194 322.473l4.535-1.929M254.194 313.234l4.535-1.929M254.194 303.987l4.535-1.92M254.194 294.748l4.535-1.928M254.194 285.51l4.535-1.929M254.194 276.271l4.535-1.937M254.194 267.024l4.535-1.929M254.194 257.786l4.535-1.929M254.194 248.547l4.535-1.937M254.194 239.3l4.535-1.929M254.194 230.062l4.535-1.929M254.194 220.823l4.535-1.929M254.194 211.576l4.535-1.929M254.194 202.337l4.535-1.928M254.194 193.099l4.535-1.929M254.194 183.852l4.535-1.92M254.194 174.613l4.535-1.929M254.194 165.375l4.535-1.929M254.194 156.136l4.535-1.929M254.194 146.889l4.535-1.929M254.194 137.65l4.535-1.928M254.194 128.412l4.535-1.929M254.194 119.165l4.535-1.92M254.194 109.926l4.535-1.929M254.194 100.688l4.535-1.93M254.194 91.45l4.535-1.93M254.194 82.202l4.535-1.92M254.194 72.963l4.535-1.928M254.194 63.725l4.535-1.929M254.194 54.487l4.535-1.938M254.194 45.24l4.535-1.93M254.194 36l4.535-1.928M247.386 356.168l4.535-1.929M247.386 346.929l4.535-1.928M247.386 337.691l4.535-1.938M247.386 328.444l4.535-1.929M247.386 319.205l4.535-1.929M247.386 309.958l4.535-1.92M247.386 300.719l4.535-1.928M247.386 291.481l4.535-1.929M247.386 282.243l4.535-1.929M247.386 272.995l4.535-1.92M247.386 263.757l4.535-1.929M247.386 254.518l4.535-1.928M247.386 245.28l4.535-1.929M247.386 236.033l4.535-1.929M247.386 226.794l4.535-1.929M247.386 217.556l4.535-1.929M247.386 208.308l4.535-1.92M247.386 199.07l4.535-1.929M247.386 189.831l4.535-1.928M247.386 180.593l4.535-1.938M247.386 171.346l4.535-1.929M247.386 162.107l4.535-1.929M247.386 152.869l4.535-1.938M247.386 143.63l4.535-1.937M247.386 134.383l4.535-1.929M247.386 125.145l4.535-1.929M247.386 115.906l4.535-1.937M247.386 106.659l4.535-1.929M247.386 97.42l4.535-1.928M247.386 88.173l4.535-1.92M247.386 78.935l4.535-1.93M247.386 69.696l4.535-1.929M247.386 60.458l4.535-1.93M247.386 51.21l4.535-1.928M247.386 41.972l4.535-1.929M247.386 353.094l4.535-1.937M247.386 343.847l4.535-1.929M247.386 334.609l4.535-1.929M247.386 325.37l4.535-1.938M247.386 316.123l4.535-1.929M247.386 306.884l4.535-1.928M247.386 297.637l4.535-1.92M247.386 288.399l4.535-1.929M247.386 279.16l4.535-1.929M247.386 269.922l4.535-1.929M247.386 260.674l4.535-1.928M247.386 251.436l4.535-1.929M247.386 242.197l4.535-1.928M247.386 232.959l4.535-1.929M247.386 223.712l4.535-1.929M247.386 214.473l4.535-1.929M247.386 205.235l4.535-1.929M247.386 195.987l4.535-1.919M247.386 186.749l4.535-1.929M247.386 177.511l4.535-1.929M247.386 168.272l4.535-1.938M247.386 159.025l4.535-1.929M247.386 149.786l4.535-1.928M247.386 140.548l4.535-1.938M247.386 131.301l4.535-1.929M247.386 122.062l4.535-1.929M247.386 112.824l4.535-1.929M247.386 103.585l4.535-1.937M247.386 94.338l4.535-1.929M247.386 85.1l4.535-1.93M247.386 75.852l4.535-1.92M247.386 66.614l4.535-1.93M247.386 57.375l4.535-1.928M247.386 48.137l4.535-1.929M247.386 38.89l4.535-1.93"/><path stroke="#000" stroke-linecap="round" stroke-linejoin="round" stroke-miterlimit="10" stroke-width=".819" d="M254.194 358.088V32.293M254.194 32.293V30.03M251.921 358.088V36.828M251.921 36.829v-4.536M247.386 36.829v28.35M247.386 69.714v5.671M247.386 79.92v5.664M247.386 90.12v18.899M247.386 113.555v5.671M247.386 123.762v182.55M247.386 310.847v7.557M247.386 322.939v35.149M254.194 358.088h-2.273"/><path stroke="#7F7F7F" stroke-linecap="round" stroke-linejoin="round" stroke-miterlimit="10" stroke-width=".819" d="m33.351 123.762 10.665-4.536M11.624 123.762l10.666-4.536M47.838 123.762l3.012-1.286M26.112 123.762l10.656-4.536M5.503 123.286l9.538-4.06M120.267 123.762l10.656-4.536M99.984 123.145l9.212-3.919M113.019 123.762l10.665-4.536M99.984 120.063l1.973-.837M228.9 123.762l10.665-4.536M207.173 123.762l10.666-4.536M185.447 123.762l10.665-4.536M167.26 122.256l7.125-3.03M243.387 123.762l3.999-1.7M221.661 123.762l10.665-4.536M199.934 123.762l10.665-4.536M178.207 123.762l10.665-4.536"/><path stroke="#000" stroke-linecap="round" stroke-linejoin="round" stroke-miterlimit="10" stroke-width="1.136" d="M133.248 119.226h-1.4M133.248 119.411v-.185M133.248 123.762h-1.4M133.248 123.762v-4.351M167.26 119.226h1.401M167.26 119.411v-.185M167.26 123.762h1.401M167.26 123.762v-4.351M50.85 119.226H49.46M50.85 119.411v-.185M50.85 123.762H49.46M50.85 123.762v-4.351M99.984 119.226h1.4M99.984 119.411v-.185M99.984 123.762h1.4M99.984 123.762v-4.351M5.503 123.762H50.85M99.984 123.762h28.728M167.26 123.762h80.126M247.386 119.226h-7.557M235.294 119.226h-63.498M133.248 119.226H99.984M50.85 119.226h-.748M45.566 119.226H5.503"/><path stroke="#7F7F7F" stroke-linecap="round" stroke-linejoin="round" stroke-miterlimit="10" stroke-width=".819" d="M165.754 123.762c0 17.121-13.879 30.991-30.991 30.991"/><path fill="#fff" fill-rule="evenodd" d="M167.26 119.411h-1.506v4.351h1.506zM133.248 123.762h1.515v-4.351h-1.515z" clip-rule="evenodd"/><path stroke="#7F7F7F" stroke-linecap="round" stroke-linejoin="round" stroke-miterlimit="10" stroke-width=".819" d="M167.26 119.411h-1.506M165.754 119.411v4.351M165.754 123.762h1.506M167.26 123.762v-4.351M133.248 123.762h1.515M134.763 123.762v-4.351M134.763 119.411h-1.515M133.248 119.411v4.351M134.763 123.762v30.991M167.26 123.762v-4.351M167.26 123.762v-4.351M167.26 119.411v-.185M167.26 123.762h1.401M167.26 123.762h1.401M167.26 119.411v-.185M167.26 119.226h1.401M167.26 119.226h1.401M133.248 123.762v-4.351M133.248 123.762v-4.351M133.248 119.411v-.185M133.248 123.762h-1.4M133.248 123.762h-1.4M133.248 119.411v-.185M133.248 119.226h-1.4M133.248 119.226h-1.4M85.928 123.762c0 18.538-15.024 33.563-33.563 33.563M98.478 136.312c-6.93 0-12.55-5.619-12.55-12.55"/><path fill="#fff" fill-rule="evenodd" d="M99.984 119.411h-1.506v4.351h1.506zM50.85 123.762h1.515v-4.351H50.85z" clip-rule="evenodd"/><path stroke="#7F7F7F" stroke-linecap="round" stroke-linejoin="round" stroke-miterlimit="10" stroke-width=".819" d="M99.984 119.411h-1.506M98.478 119.411v4.351M98.478 123.762h1.506M99.984 123.762v-4.351M50.85 123.762h1.515M52.365 123.762v-4.351M52.365 119.411H50.85M50.85 119.411v4.351M52.365 123.762v33.563M98.478 123.762v12.55M99.984 123.762v-4.351M99.984 123.762v-4.351M99.984 119.411v-.185M99.984 123.762h1.4M99.984 123.762h1.4M99.984 119.411v-.185M99.984 119.226h1.4M99.984 119.226h1.4M50.85 123.762v-4.351M50.85 123.762v-4.351M50.85 119.411v-.185M50.85 123.762H49.46M50.85 123.762H49.46M50.85 119.411v-.185M50.85 119.226H49.46M50.85 119.226H49.46M235.294 352.073l4.536-1.929M235.294 342.834l4.536-1.937M235.294 333.596l4.536-1.938M235.294 324.348l3.303-1.409M235.62 358.088l4.209-1.788M235.294 348.99l4.536-1.928M235.294 339.752l4.536-1.929M235.294 330.505l4.536-1.929M235.294 315.11l4.536-1.929M235.294 312.028l2.774-1.181"/><path stroke="#000" stroke-linecap="round" stroke-linejoin="round" stroke-miterlimit="10" stroke-width="1.136" d="M239.829 358.088v-35.149M239.829 318.404v-7.557M235.294 310.847v7.557M235.294 322.939v35.149"/><path stroke="#7F7F7F" stroke-linecap="round" stroke-linejoin="round" stroke-miterlimit="10" stroke-width=".819" d="m223.202 357.216 4.535-1.929M223.202 347.977l4.535-1.928M223.202 338.73l4.535-1.928M223.202 329.492l4.535-1.929M223.202 320.253l4.535-1.929M223.202 311.006l.379-.159M223.202 354.134l4.535-1.929M223.202 344.895l4.535-1.929M223.202 335.648l4.535-1.92M223.202 326.409l4.535-1.928M223.202 317.171l4.535-1.929"/><path stroke="#000" stroke-linecap="round" stroke-linejoin="round" stroke-miterlimit="10" stroke-width="1.136" d="M227.738 358.088v-35.149M227.738 318.404v-7.557M223.202 310.847v47.241"/><path stroke="#7F7F7F" stroke-linecap="round" stroke-linejoin="round" stroke-miterlimit="10" stroke-width=".819" d="m238.596 322.939 8.79-3.734M231.357 322.939l10.657-4.535"/><path stroke="#000" stroke-linecap="round" stroke-linejoin="round" stroke-miterlimit="10" stroke-width="1.136" d="M227.738 322.939h7.556M239.829 322.939h7.557M247.386 318.404h-7.557M235.294 318.404h-7.556"/><path stroke="#7F7F7F" stroke-linecap="round" stroke-linejoin="round" stroke-miterlimit="10" stroke-width=".819" d="M119.377 371.316a.86.86 0 0 1 .493-.15c.176 0 .344.053.493.15M122.574 371.175c0 .053 0 .097-.009.15M120.548 369.651l.582.441M120.407 370.99l.723-.537"/><path stroke="#7F7F7F" stroke-linecap="round" stroke-linejoin="round" stroke-miterlimit="10" stroke-width=".819" d="M120.408 370.99a.9.9 0 0 1-.538.176.9.9 0 0 1-.607-.238M121.13 370.453a.902.902 0 0 1 1.435.722"/><path stroke="#7F7F7F" stroke-linecap="round" stroke-linejoin="round" stroke-miterlimit="10" stroke-width=".819" d="M122.574 369.37a.902.902 0 0 1-1.436.722M121.729 368.471a.905.905 0 0 1 .845.898M122.565 367.635a.9.9 0 0 1-.836.836M130.544 359.655l1.568-.669M126.493 367.538l5.619-2.387M120.407 356.961h.009M120.407 356.591l.529-.388M120.408 356.961l-.053-.053M120.355 356.908l-.071-.036M120.284 356.872l-.061-.026M120.223 356.846l-.08-.026M120.143 356.82l-.07-.018M120.073 356.802l-.071-.018M120.002 356.784l-.079-.008M119.923 356.776h-.07M119.853 356.776h-.08M119.773 356.776l-.07.017M119.703 356.793l-.07.018M119.632 356.811l-.07.017M119.562 356.828l-.079.036M119.483 356.864l-.062.035M119.421 356.899l-.062.035M119.359 356.934l-.026.027"/><circle cx="119.034" cy="356.203" r=".41" fill="#7F7F7F"/><path stroke="#7F7F7F" stroke-linecap="round" stroke-linejoin="round" stroke-miterlimit="10" stroke-width=".819" d="m119.034 356.203.035.071M119.069 356.274l.035.07M119.104 356.344l.044.053M119.148 356.397l.044.062M119.192 356.458l.053.062M119.245 356.52l.053.044M119.298 356.564l.062.044M119.359 356.608l.062.044M119.421 356.652l.062.036M119.483 356.688l.079.026M119.562 356.714l.07.026M119.633 356.74l.07.018M119.703 356.758l.07.009M119.773 356.767l.08.009M119.853 356.776l.07-.009M119.923 356.767h.079M120.002 356.767l.071-.018M120.073 356.749l.07-.017M120.143 356.731l.08-.026M120.223 356.705l.061-.035M120.284 356.67l.071-.035M120.355 356.635l.053-.044M122.574 356.776v-.08M122.574 356.696l-.009-.07M122.565 356.626l-.017-.071M122.548 356.555l-.027-.07M122.521 356.485l-.026-.07M122.495 356.414l-.027-.07M122.468 356.344l-.035-.053M122.433 356.291l-.044-.062M122.389 356.23l-.026-.027M122.556 356.961l.009-.036M122.565 356.925l.009-.079M122.574 356.846v-.07M129.646 356.961l1.779-.758M122.662 353.764l3.162-1.339M131.425 356.203l.388-.167"/><path fill="#7F7F7F" fill-rule="evenodd" d="M118.505 371.245h.379v-.14a.42.42 0 0 0-.379-.265.41.41 0 0 0-.37.247v.238h.758v-.071h-.379z" clip-rule="evenodd"/><path stroke="#7F7F7F" stroke-linecap="round" stroke-linejoin="round" stroke-miterlimit="10" stroke-width=".819" d="m120.407 365.952.723.546M120.407 367.397l.723-.546M120.407 367.397a.9.9 0 0 1-.29.141m-.502 0a.898.898 0 1 1 .784-1.586M121.13 366.851a.9.9 0 0 1 1.435.687"/><path stroke="#7F7F7F" stroke-linecap="round" stroke-linejoin="round" stroke-miterlimit="10" stroke-width=".819" d="M122.574 365.776a.903.903 0 0 1-1.436.722M120.407 364.156l.723.537M120.407 365.591l.723-.537M120.407 365.591a.902.902 0 0 1-1.435-.722.902.902 0 0 1 1.435-.722M121.13 365.054a.902.902 0 0 1 1.435.722"/><path stroke="#7F7F7F" stroke-linecap="round" stroke-linejoin="round" stroke-miterlimit="10" stroke-width=".819" d="M122.574 363.971a.902.902 0 0 1-1.436.722M120.407 362.359l.723.537M120.407 363.795l.723-.538M120.407 363.795a.902.902 0 0 1-1.435-.722.902.902 0 0 1 1.435-.723"/><path stroke="#7F7F7F" stroke-linecap="round" stroke-linejoin="round" stroke-miterlimit="10" stroke-width=".819" d="M121.13 363.257a.902.902 0 0 1 1.435.723"/><path stroke="#7F7F7F" stroke-linecap="round" stroke-linejoin="round" stroke-miterlimit="10" stroke-width=".819" d="M122.574 362.174a.902.902 0 0 1-1.436.722M120.407 360.554l.723.537M120.407 361.998l.723-.546M120.407 361.998a.902.902 0 0 1-1.435-.722.902.902 0 0 1 1.435-.722M121.13 361.452a.902.902 0 0 1 1.435.722"/><path stroke="#7F7F7F" stroke-linecap="round" stroke-linejoin="round" stroke-miterlimit="10" stroke-width=".819" d="M122.574 360.378a.902.902 0 0 1-1.436.722M120.407 358.757l.723.537M120.407 360.193l.723-.537M120.407 360.193a.902.902 0 0 1-1.435-.723.902.902 0 0 1 1.435-.722M121.13 359.655a.902.902 0 0 1 1.435.723"/><path stroke="#7F7F7F" stroke-linecap="round" stroke-linejoin="round" stroke-miterlimit="10" stroke-width=".819" d="M122.574 358.572a.902.902 0 0 1-1.436.722M120.407 356.961l.723.537M120.407 358.396l.723-.537M120.407 358.396a.902.902 0 0 1-1.435-.722c0-.291.141-.555.361-.722"/><path stroke="#7F7F7F" stroke-linecap="round" stroke-linejoin="round" stroke-miterlimit="10" stroke-width=".819" d="M121.13 357.859a.902.902 0 0 1 1.435.722"/><path stroke="#7F7F7F" stroke-linecap="round" stroke-linejoin="round" stroke-miterlimit="10" stroke-width=".819" d="M122.556 356.961a.898.898 0 0 1-1.418.546M120.407 369.554l.141.097M119.263 370.937a.902.902 0 0 1 1.144-1.391M120.407 367.749l.723.546M120.407 369.193l.723-.546"/><path stroke="#7F7F7F" stroke-linecap="round" stroke-linejoin="round" stroke-miterlimit="10" stroke-width=".819" d="M120.407 369.193a.902.902 0 0 1-1.435-.722.902.902 0 0 1 1.435-.722M121.13 368.647a.9.9 0 0 1 .537-.176h.062"/><path stroke="#7F7F7F" stroke-linecap="round" stroke-linejoin="round" stroke-miterlimit="10" stroke-width=".819" d="M122.574 367.573v.062m-.837.836h-.061a.9.9 0 0 1-.538-.176M120.108 367.538c-.079.017-.158.035-.238.035a.7.7 0 0 1-.237-.035M122.574 367.538v.035M126.978 358.088l2.668-1.127M122.662 363.011l7.882-3.355M122.662 359.929l4.316-1.841"/><path stroke="#000" stroke-linecap="round" stroke-linejoin="round" stroke-miterlimit="10" stroke-width=".819" d="M118.884 371.316h3.778M122.662 367.538h9.45M118.126 372.073h.758M118.884 356.203v.758M122.662 356.203v.758"/><path fill="#000" fill-rule="evenodd" d="M132.517 356.961a.404.404 0 0 1-.405.405.405.405 0 1 1 .405-.405" clip-rule="evenodd"/><path stroke="#000" stroke-linecap="round" stroke-linejoin="round" stroke-miterlimit="10" stroke-width=".819" d="M122.662 352.425v3.778M118.884 356.961v10.577M118.884 367.538v3.778M122.662 356.961v1.127M122.662 358.088v9.45M132.112 358.088v-1.127M118.126 356.961v15.112"/><path stroke="#7F7F7F" stroke-linecap="round" stroke-linejoin="round" stroke-miterlimit="10" stroke-width=".819" d="m131.698 354.671.414-.546M131.698 354.671l-.044.061M131.654 354.732l-.035.062M131.619 354.794l-.036.071M131.584 354.865l-.027.07M131.557 354.935l-.017.079M131.54 355.014l-.009.071M131.531 355.085l-.009.061M131.733 355.798l.044.044M131.777 355.842l.053.053M131.83 355.895l.062.044M131.892 355.939l.061.044M131.953 355.983l.062.035M132.015 356.018l.071.035M132.085 356.053h.027M131.513 355.102l-.009-.017M131.504 355.085l-.009-.071M131.495 355.014l-.017-.079M131.478 354.935l-.027-.07M131.451 354.865l-.035-.071M131.416 354.794l-.018-.026M131.522 352.513h-.079M131.443 352.513l-.071.009M131.372 352.522l-.07.017M131.302 352.539l-.071.018M131.231 352.557l-.07.027M131.161 352.583l-.071.036M131.09 352.619l-.061.035M131.029 352.654l-.053.044M130.976 352.698l-.062.044M130.914 352.742l-.053.053M130.861 352.795l-.044.061M130.817 352.856l-.026.027M132.112 352.733l-.044-.035M132.068 352.698l-.062-.044M132.006 352.654l-.061-.035M131.944 352.619l-.061-.036M131.883 352.584l-.071-.027M131.812 352.557l-.07-.018M131.742 352.539l-.07-.017M131.672 352.522l-.08-.009M131.592 352.513h-.07M130.06 350.62l2.052-.872M129.179 347.916l2.933-1.251"/><path fill="#7F7F7F" fill-rule="evenodd" d="M15.367 356.89h.405c0 .018 0 .044-.008.062h-.81c0-.018-.01-.044-.01-.062 0-.229.185-.405.406-.405.229 0 .405.185.405.405h-.405zM108.271 356.37a.405.405 0 1 1-.81 0c0-.061.018-.114.035-.167h.74a.35.35 0 0 1 .035.167M116.488 356.855c0 .035-.008.07-.008.097h-.793c-.009-.036-.009-.071-.009-.097 0-.229.185-.405.405-.405.229 0 .405.185.405.405M110.13 356.652h.405a.41.41 0 0 1-.141.309h-.546a.4.4 0 0 1-.141-.309c0-.229.185-.405.405-.405.229 0 .405.185.405.405h-.405zM104.59 356.45a.404.404 0 0 1-.405.405.404.404 0 0 1-.405-.405c0-.097.035-.176.079-.247h.652a.4.4 0 0 1 .079.247M98.637 356.247a.404.404 0 0 1-.406.405.404.404 0 0 1-.405-.405v-.044h.81z" clip-rule="evenodd"/><path stroke="#7F7F7F" stroke-linecap="round" stroke-linejoin="round" stroke-miterlimit="10" stroke-width=".819" d="m17.181 352.425 11.943-5.073M.906 350.109l16.769-7.134M9.942 352.425l19.182-8.155M.906 347.026l9.53-4.051M125.824 352.425l1.752-.749M104.097 352.425l22.22-9.45M89.592 349.351l14.998-6.376M118.584 352.425l8.992-3.822M96.858 352.425l22.22-9.45M89.592 346.269l7.75-3.294M127.576 351.676l2.484-1.056M127.576 348.603l1.603-.687"/><path fill="#fff" fill-rule="evenodd" d="M29.88 356.961v-4.536h-.756v-9.45h60.468v9.45h-.757v4.536z" clip-rule="evenodd"/><path stroke="#000" stroke-linecap="round" stroke-linejoin="round" stroke-miterlimit="10" stroke-width=".819" d="M131.865 356.203h.247M130.641 352.425h1.471M132.112 356.961v-.758M132.112 356.203v-3.778M132.112 352.425v-9.45M118.884 356.203v.758"/><path fill="#000" fill-rule="evenodd" d="M132.517 356.961a.404.404 0 0 1-.405.405.405.405 0 1 1 .405-.405" clip-rule="evenodd"/><path stroke="#000" stroke-linecap="round" stroke-linejoin="round" stroke-miterlimit="10" stroke-width=".819" d="M89.592 356.203h29.292M.906 356.203h28.218M122.662 352.425v3.778M89.592 352.425h37.984M.906 352.425h28.218M127.576 352.425h3.065M29.881 352.425v4.535M29.124 356.961h.757M29.124 352.425h.757M29.124 356.203v-3.778M88.835 352.425v4.535M89.592 356.961h-.757M89.592 352.425h-.757M89.592 356.203v-3.778M29.124 350.531v-7.556M29.124 352.425v-1.894M89.592 350.531v-7.556M89.592 352.425v-1.894M127.576 342.975H89.592M29.124 342.975H5.504M.968 342.975H.906M.906 356.961h28.218M89.592 356.961h28.534"/><path stroke="#7F7F7F" stroke-linecap="round" stroke-linejoin="round" stroke-miterlimit="10" stroke-width=".819" d="M88.835 356.961H29.88M89.592 342.975H29.124"/><path fill="#fff" fill-rule="evenodd" d="M89.592 350.531h-2.836v1.894h2.836zM60.3 352.425h1.418v-1.894H60.3zM86.756 350.531H61.718v1.894h25.038zM60.3 350.531h-2.36v1.894h2.36zM29.124 352.425h3.778v-1.894h-3.779zM57.94 350.531H32.902v1.894H57.94z" clip-rule="evenodd"/><path stroke="#7F7F7F" stroke-linecap="round" stroke-linejoin="round" stroke-miterlimit="10" stroke-width=".819" d="M89.592 350.531h-2.836M86.756 350.531v1.894M86.756 352.425h2.836M60.3 352.425h1.418M61.718 352.425v-1.894M61.718 350.531H60.3M86.756 351.474H61.718M86.756 350.531H61.718M61.718 352.425h25.038M60.3 350.531h-2.36M57.94 350.531v1.894M57.94 352.425h2.36M29.124 352.425h3.778M32.902 352.425v-1.894M32.902 350.531h-3.779M57.94 351.474H32.902M57.94 350.531H32.902M32.902 352.425H57.94M89.592 352.425v-1.894M89.592 352.425v-1.894M89.592 350.531v-7.556M29.124 352.425v-1.894M29.124 352.425v-1.894M29.124 350.531v-7.556M89.592 356.961h-.757M88.835 352.425v4.535M29.124 356.961h.757M29.881 352.425v4.535M136.665 310.847l10.665-4.535M132.112 309.703l7.979-3.391M245.307 310.848l2.079-.89M223.581 310.847l10.665-4.535M238.068 310.847l9.318-3.963M223.202 307.932l3.796-1.62"/><path stroke="#000" stroke-linecap="round" stroke-linejoin="round" stroke-miterlimit="10" stroke-width="1.136" d="M147.612 310.847h-1.4M147.612 310.654v.193M147.612 306.312h-1.4M147.612 306.312v4.342M223.202 310.847h1.391M223.202 310.654v.193M223.202 306.312h1.391M223.202 306.312v4.342M247.386 306.312h-24.184M147.612 306.312h-15.5M132.112 310.847h15.5M227.738 310.847h7.556M239.829 310.847h7.557"/><path stroke="#7F7F7F" stroke-linecap="round" stroke-linejoin="round" stroke-miterlimit="10" stroke-width=".819" d="M149.118 273.805c17.949 0 32.507 14.558 32.507 32.507"/><path fill="#fff" fill-rule="evenodd" d="M223.202 310.654v-4.342h-1.515v4.342zM183.139 310.654v-4.342h-1.514v4.342zM147.612 306.312v4.342h1.506v-4.342zM221.687 310.654v-4.342h-38.548v4.342z" clip-rule="evenodd"/><path stroke="#7F7F7F" stroke-linecap="round" stroke-linejoin="round" stroke-miterlimit="10" stroke-width=".819" d="M221.687 310.654h-38.548M183.139 310.654v-4.342M183.139 306.312h38.548M221.687 306.312v4.342M223.202 310.654h-1.515M221.687 310.654v-4.342M221.687 306.312h1.515M223.202 306.312v4.342M183.139 310.654h-1.514M181.625 310.654v-4.342M181.625 306.312h1.514M183.139 306.312v4.342M147.612 306.312h1.506M149.118 306.312v4.342M149.118 310.654h-1.506M147.612 310.654v-4.342M149.118 306.312v-32.507M223.202 306.312v4.342M223.202 306.312v4.342M223.202 310.654v.193M223.202 306.312h1.391M223.202 306.312h1.391M223.202 310.654v.193M223.202 310.847h1.391M223.202 310.847h1.391M147.612 306.312v4.342M147.612 306.312v4.342M147.612 310.654v.193M147.612 306.312h-1.4M147.612 306.312h-1.4M147.612 310.654v.193M147.612 310.847h-1.4M147.612 310.847h-1.4"/><path fill="#7F7F7F" fill-rule="evenodd" d="M254.511 371.624h.405a.405.405 0 1 1-.67-.308h.538c.088.07.141.185.141.308h-.414" clip-rule="evenodd"/><path stroke="#7F7F7F" stroke-linecap="round" stroke-linejoin="round" stroke-miterlimit="10" stroke-width=".819" d="m133.732 367.538 21.436-9.116M132.112 358.986l2.113-.898M148.22 367.538l6.948-2.951M132.112 365.151l16.601-7.063M242.375 367.538l16.354-6.949M223.202 366.454l19.666-8.366M256.862 367.538l1.867-.793M235.135 367.538l22.211-9.45M223.202 363.381l12.418-5.293"/><path fill="#fff" fill-rule="evenodd" d="M222.445 372.073h-66.519v-4.535h-.758v-9.45h68.034v9.45h-.757z" clip-rule="evenodd"/><path fill="#7F7F7F" fill-rule="evenodd" d="M223.193 368.454v-.273a.404.404 0 0 0-.704.273.403.403 0 0 0 .704.273z" clip-rule="evenodd"/><path stroke="#000" stroke-linecap="round" stroke-linejoin="round" stroke-miterlimit="10" stroke-width=".819" d="M118.884 371.316h3.778M122.662 371.316h32.506M223.202 371.316h35.527M122.662 367.538h9.45M132.112 367.538h23.056M223.202 367.538h35.527M222.445 367.538v4.535M223.202 372.073h-.757M223.202 367.538h-.757M223.202 371.316v-3.778M155.926 367.538v4.535M155.168 372.073h.758M155.168 367.538h.758M155.168 371.316v-3.778M223.202 365.653v-7.565M223.202 367.538v-1.885M155.168 365.653v-7.565M155.168 367.538v-1.885M254.194 358.088h-2.273M247.386 358.088h-7.557M235.294 358.088h-7.556M155.168 358.088h-23.056M118.884 372.073h36.284M223.202 372.073h35.527"/><path stroke="#7F7F7F" stroke-linecap="round" stroke-linejoin="round" stroke-miterlimit="10" stroke-width=".819" d="M155.926 372.073h66.519M155.168 358.088h68.034"/><path fill="#fff" fill-rule="evenodd" d="M155.168 365.653v1.885h2.836v-1.885zM188.238 367.538v-1.885h-1.417v1.885z" clip-rule="evenodd"/><path fill="#fff" fill-rule="evenodd" d="M158.004 365.653v1.885h28.817v-1.885zM188.239 365.653v1.885h2.36v-1.885zM223.202 367.538v-1.885h-3.778v1.885z" clip-rule="evenodd"/><path fill="#fff" fill-rule="evenodd" d="M190.599 365.653v1.885h28.825v-1.885z" clip-rule="evenodd"/><path stroke="#7F7F7F" stroke-linecap="round" stroke-linejoin="round" stroke-miterlimit="10" stroke-width=".819" d="M155.168 365.653h2.836M158.004 365.653v1.885M158.004 367.538h-2.836M188.238 367.538h-1.417M186.821 367.538v-1.885M186.821 365.653h1.417M158.004 366.595h28.817M158.004 365.653h28.817M186.821 367.538h-28.817M188.239 365.653h2.36M190.599 365.653v1.885M190.599 367.538h-2.36M223.202 367.538h-3.778M219.424 367.538v-1.885M219.424 365.653h3.778M190.599 366.595h28.825M190.599 365.653h28.825M219.424 367.538h-28.825M155.168 367.538v-1.885M155.168 367.538v-1.885M155.168 365.653v-7.565M223.202 367.538v-1.885M223.202 367.538v-1.885M223.202 365.653v-7.565M155.168 372.073h.758M155.926 367.538v4.535M223.202 372.073h-.757M222.445 367.538v4.535"/><circle cx="90.579" cy="25.494" r=".41" fill="#7F7F7F"/><circle cx="92.428" cy="25.494" r=".568" fill="#000"/><path stroke="#7F7F7F" stroke-linecap="round" stroke-linejoin="round" stroke-miterlimit="10" stroke-width=".819" d="m247.342 69.714.044-.018M240.094 69.714l7.292-3.1"/><path stroke="#000" stroke-linecap="round" stroke-linejoin="round" stroke-miterlimit="10" stroke-width="1.136" d="M247.386 65.178h-7.557M239.829 69.714h7.557"/><path stroke="#7F7F7F" stroke-linecap="round" stroke-linejoin="round" stroke-miterlimit="10" stroke-width=".819" d="m127.576 342.438 4.536-1.929M127.576 333.191l4.536-1.92M127.576 323.952l4.536-1.929M127.576 314.714l4.536-1.929M127.576 305.475l4.536-1.928M127.576 296.228l1.181-.502M127.576 339.355l4.536-1.928M127.576 330.117l4.536-1.929M127.576 320.87l4.536-1.92M127.576 311.631l4.536-1.928M127.576 302.393l4.536-1.929"/><path stroke="#000" stroke-linecap="round" stroke-linejoin="round" stroke-miterlimit="10" stroke-width="1.136" d="M127.576 295.726v47.249M132.112 342.975v-32.128M132.112 306.312v-10.586"/><path stroke="#7F7F7F" stroke-linecap="round" stroke-linejoin="round" stroke-miterlimit="10" stroke-width=".819" d="m239.829 109.873 2-.854M245.651 113.555l1.735-.731"/><path stroke="#000" stroke-linecap="round" stroke-linejoin="round" stroke-miterlimit="10" stroke-width="1.136" d="M247.386 109.019h-7.557M239.829 113.555h7.557M45.566 81.427v-1.392M50.102 81.427h-4.536M50.102 81.427v-1.392M45.566 119.226v1.401M50.102 119.226h-4.536M50.102 119.226v1.401"/><path stroke="#7F7F7F" stroke-linecap="round" stroke-linejoin="round" stroke-miterlimit="10" stroke-width=".819" d="M56.337 90.877V83.32M56.337 83.32l1.885 1.894M56.337 83.32l-1.893 1.894M56.337 109.776v7.557M56.337 117.333l1.885-1.885M56.337 117.333l-1.893-1.885M51.802 81.427v18.9M51.802 119.226v-18.899M50.102 119.226h-4.536M50.102 119.226v1.401M50.102 119.226v1.401M50.102 119.226h-4.536M45.566 119.226v1.401M45.566 119.226v1.401M50.102 81.427h-4.536M50.102 81.427v-1.392M50.102 81.427v-1.392M50.102 81.427h-4.536M45.566 81.427v-1.392M45.566 81.427v-1.392"/><path fill="#fff" fill-rule="evenodd" d="M5.503 69.282v.81l3.189-.81z" clip-rule="evenodd"/><path stroke="#000" stroke-linecap="round" stroke-linejoin="round" stroke-miterlimit="10" stroke-width=".819" d="M5.503 69.282v.81M5.503 70.092l3.189-.81"/><path fill="#7F7F7F" fill-rule="evenodd" d="M5.503 70.092h33.255v-.81H8.692z" clip-rule="evenodd"/><path stroke="#000" stroke-linecap="round" stroke-linejoin="round" stroke-miterlimit="10" stroke-width=".819" d="M5.503 70.092h33.255M38.759 70.092v-.81M8.692 69.282l-3.189.81"/><path fill="#fff" fill-rule="evenodd" d="m246.065 74.064 1.321-4.35h-7.557v5.671z" clip-rule="evenodd"/><path stroke="#000" stroke-linecap="round" stroke-linejoin="round" stroke-miterlimit="10" stroke-width=".819" d="m246.065 74.064-6.236 1.321M239.829 75.385v-5.671M239.829 69.714h7.557M247.386 69.714l-1.321 4.35"/><path fill="#0077B0" fill-rule="evenodd" d="m247.386 69.714-1.321 4.35-6.236 1.321h7.557z" clip-rule="evenodd"/><path stroke="#000" stroke-linecap="round" stroke-linejoin="round" stroke-miterlimit="10" stroke-width=".819" d="M247.386 69.714v5.671M247.386 75.385h-7.557M239.829 75.385l6.236-1.32M246.065 74.064l1.321-4.35M246.065 84.272l-6.236 1.312M239.829 85.584V79.92M239.829 79.92h7.557M247.386 79.92l-1.321 4.352"/><path fill="#7F7F7F" fill-rule="evenodd" d="m247.386 79.92-1.321 4.352-6.236 1.312h7.557z" clip-rule="evenodd"/><path stroke="#000" stroke-linecap="round" stroke-linejoin="round" stroke-miterlimit="10" stroke-width=".819" d="M247.386 79.92v5.664M247.386 85.584h-7.557M239.829 85.584l6.236-1.312M246.065 84.272l1.321-4.351M244.973 106.606l-5.144 2.413M239.829 109.019v-18.9M239.829 90.12h7.557M247.386 90.12l-2.413 16.486"/><path fill="#7F7F7F" fill-rule="evenodd" d="m247.386 90.12-2.413 16.486-5.144 2.413h7.557z" clip-rule="evenodd"/><path stroke="#000" stroke-linecap="round" stroke-linejoin="round" stroke-miterlimit="10" stroke-width=".819" d="M247.386 90.12v18.899M247.386 109.019h-7.557M239.829 109.019l5.144-2.413M244.973 106.606l2.413-16.487M244.744 342.975l-4.915 2.642M239.829 345.617v-22.678M239.829 322.939h7.557M247.386 322.939l-2.642 20.036"/><path fill="#7F7F7F" fill-rule="evenodd" d="m247.386 322.939-2.642 20.036-4.915 2.642h7.557z" clip-rule="evenodd"/><path stroke="#000" stroke-linecap="round" stroke-linejoin="round" stroke-miterlimit="10" stroke-width=".819" d="M247.386 322.939v22.678M247.386 345.617h-7.557M239.829 345.617l4.915-2.642M244.744 342.975l2.642-20.036M245.862 316.88l-6.033 1.524M239.829 318.404v-7.557M239.829 310.847h7.557M247.386 310.847l-1.524 6.033"/><path fill="#7F7F7F" fill-rule="evenodd" d="m247.386 310.847-1.524 6.033-6.033 1.524h7.557z" clip-rule="evenodd"/><path stroke="#000" stroke-linecap="round" stroke-linejoin="round" stroke-miterlimit="10" stroke-width=".819" d="M247.386 310.847v7.557M247.386 318.404h-7.557M239.829 318.404l6.033-1.524M245.862 316.88l1.524-6.033M232.652 342.975l-4.914 2.642M227.738 345.617v-22.678M227.738 322.939h7.556M235.294 322.939l-2.642 20.036"/><path fill="#7F7F7F" fill-rule="evenodd" d="m235.294 322.939-2.642 20.036-4.914 2.642h7.556z" clip-rule="evenodd"/><path stroke="#000" stroke-linecap="round" stroke-linejoin="round" stroke-miterlimit="10" stroke-width=".819" d="M235.294 322.939v22.678M235.294 345.617h-7.556M227.738 345.617l4.914-2.642M232.652 342.975l2.642-20.036M233.77 316.88l-6.032 1.524M227.738 318.404v-7.557M227.738 310.847h7.556M235.294 310.847l-1.524 6.033"/><path fill="#7F7F7F" fill-rule="evenodd" d="m235.294 310.847-1.524 6.033-6.032 1.524h7.556z" clip-rule="evenodd"/><path stroke="#000" stroke-linecap="round" stroke-linejoin="round" stroke-miterlimit="10" stroke-width=".819" d="M235.294 310.847v7.557M235.294 318.404h-7.556M227.738 318.404l6.032-1.524M233.77 316.88l1.524-6.033"/><path fill="#fff" fill-rule="evenodd" d="m246.065 117.905 1.321-4.35h-7.557v5.671z" clip-rule="evenodd"/><path stroke="#000" stroke-linecap="round" stroke-linejoin="round" stroke-miterlimit="10" stroke-width=".819" d="m246.065 117.905-6.236 1.321M239.829 119.226v-5.671M239.829 113.555h7.557M247.386 113.555l-1.321 4.35"/><path fill="#0077B0" fill-rule="evenodd" d="m247.386 113.555-1.321 4.35-6.236 1.321h7.557z" clip-rule="evenodd"/><path stroke="#000" stroke-linecap="round" stroke-linejoin="round" stroke-miterlimit="10" stroke-width=".819" d="M247.386 113.555v5.671M247.386 119.226h-7.557M239.829 119.226l6.236-1.321M246.065 117.905l1.321-4.35"/><path fill="#fff" fill-rule="evenodd" d="m165.684 350.091 6.112-24.131h-30.234v30.243z" clip-rule="evenodd"/><path stroke="#000" stroke-linecap="round" stroke-linejoin="round" stroke-miterlimit="10" stroke-width=".819" d="m165.684 350.091-24.122 6.112M141.562 356.203V325.96M141.562 325.96h30.234M171.796 325.96l-6.112 24.131"/><path fill="#7F7F7F" fill-rule="evenodd" d="m171.796 325.96-6.112 24.131-24.122 6.112h30.234z" clip-rule="evenodd"/><path stroke="#000" stroke-linecap="round" stroke-linejoin="round" stroke-miterlimit="10" stroke-width=".819" d="M171.796 325.96v30.243M171.796 356.203h-30.234M141.562 356.203l24.122-6.112M165.684 350.091l6.112-24.131M.906 352.24h121.756M122.662 352.24v15.113M122.662 367.353h136.067"/><path fill="#9F9FFF" fill-opacity=".251" fill-rule="evenodd" d="M223.202 357.903h-91.09v-47.241h91.09zM171.796 36.644h75.59v28.35h-12.092v54.047h-63.498zM5.503 123.577h123.209v149.286h-7.935v22.678h6.799v47.249H5.503zM133.248 123.577h114.138v182.55H132.112v-10.586h11.343v-22.678h-10.207zM50.102 36.644h70.675v1.893h22.678v-1.893h23.805v82.397H50.102V36.644M5.503 81.242h40.063v37.799H5.503z" clip-rule="evenodd"/><path fill="#fff" fill-rule="evenodd" d="M224.708 215.231v29.291h22.678v-29.291z" clip-rule="evenodd"/><path fill="#fff" fill-rule="evenodd" d="M227.738 218.921v21.92h18.512v-21.92z" clip-rule="evenodd"/><path stroke="#7F7F7F" stroke-linecap="round" stroke-linejoin="round" stroke-miterlimit="10" stroke-width=".819" d="M227.738 218.921v21.92M227.738 240.841h18.512M246.25 240.841v-21.92M246.25 218.921h-18.512M245.483 220.999v6.799M245.484 227.798h-6.799M238.685 227.798v-6.799M238.685 220.999h6.799M245.484 222.866l-2.378 1.083M245.484 225.931l-2.378-1.083M238.685 222.866l2.377 1.083M238.685 225.931l2.377-1.083M243.616 220.999l-1.083 2.378M240.552 220.999l1.083 2.378M243.616 227.798l-1.083-2.387M240.552 227.798l1.083-2.387M242.533 223.377l.573.572M243.106 223.949v.899M243.106 224.848l-.573.563M242.533 225.411h-.898M241.635 225.411l-.573-.563M241.062 224.848v-.899M241.062 223.949l.573-.572M241.635 223.377h.898M245.105 232.334v6.041M245.105 238.375h-6.042M239.063 238.375v-6.041M239.063 232.334h6.042M245.105 233.998l-2.114.96M245.105 236.72l-2.114-.969M239.063 233.998l2.114.96M239.063 236.72l2.114-.969M243.449 232.334l-.969 2.122M240.728 232.334l.96 2.122M243.449 238.375l-.969-2.113M240.728 238.375l.96-2.113M242.48 234.456l.511.502M242.991 234.958v.793M242.991 235.751l-.511.511M242.48 236.262h-.792M241.688 236.262l-.511-.511M241.177 235.751v-.793M241.177 234.958l.511-.502M241.688 234.456h.792M237.258 220.427v7.944M237.258 228.37h-7.935M229.323 228.371v-7.944M229.323 220.427h7.935M237.258 222.611l-2.783 1.268M237.258 226.186l-2.783-1.268M229.323 222.611l2.774 1.268M229.323 226.186l2.774-1.268M235.074 220.427l-1.269 2.783M231.498 220.427l1.268 2.783M235.074 228.371l-1.269-2.783M231.498 228.371l1.268-2.783M233.805 223.21l.67.669M234.475 223.879v1.039M234.475 224.918l-.67.67M233.806 225.588h-1.04M232.766 225.588l-.669-.67M232.097 224.918v-1.039M232.097 223.879l.669-.669M232.766 223.21h1.04M237.24 232.334v6.041M237.24 238.375h-6.05M231.19 238.375v-6.041M231.19 232.334h6.05M237.24 233.998l-2.122.96M237.24 236.72l-2.122-.969M231.19 233.998l2.122.96M231.19 236.72l2.122-.969M235.576 232.334l-.969 2.122M232.854 232.334l.969 2.122M235.576 238.375l-.969-2.113M232.854 238.375l.969-2.113M234.607 234.456l.511.502M235.118 234.958v.793M235.118 235.751l-.511.511M234.607 236.262h-.784M233.823 236.262l-.511-.511M233.312 235.751v-.793M233.312 234.958l.511-.502M233.823 234.456h.784"/><path stroke="#7F7F7F" stroke-linecap="round" stroke-linejoin="round" stroke-miterlimit="10" stroke-width=".819" d="M230.151 231.541a.757.757 0 0 0-.758-.757.75.75 0 0 0-.757.757.756.756 0 1 0 1.515 0M230.151 234.033a.758.758 0 1 0-.758.758.764.764 0 0 0 .758-.758M230.151 236.535a.758.758 0 1 0-.758.757.764.764 0 0 0 .758-.757M230.151 239.027a.757.757 0 0 0-.758-.757.75.75 0 0 0-.757.757.756.756 0 1 0 1.515 0" clip-rule="evenodd"/><path stroke="#7F7F7F" stroke-linecap="round" stroke-linejoin="round" stroke-miterlimit="10" stroke-width=".819" d="M224.708 215.231v29.291M247.386 215.231v29.291"/><path fill="#fff" fill-rule="evenodd" d="M224.708 283.449h22.678v-38.927h-22.678z" clip-rule="evenodd"/><path stroke="#7F7F7F" stroke-linecap="round" stroke-linejoin="round" stroke-miterlimit="10" stroke-width=".819" d="M224.708 283.449v-38.927M247.386 283.449v-38.927"/><path fill="#fff" fill-rule="evenodd" d="M224.708 123.577v91.654h22.678v-91.654z" clip-rule="evenodd"/><path fill="#fff" fill-rule="evenodd" d="M225.844 137.333v28.729l.22.537.537.22h19.279l.528-.22.22-.537v-28.729l-.22-.528-.528-.22h-19.279l-.537.22z" clip-rule="evenodd"/><path stroke="#7F7F7F" stroke-linecap="round" stroke-linejoin="round" stroke-miterlimit="10" stroke-width=".819" d="M225.844 137.333v28.728M225.844 166.062l.22.537M226.064 166.599l.537.22M226.602 166.819h19.278M245.88 166.819l.528-.22M246.408 166.599l.22-.537M246.628 166.061v-28.728M246.628 137.333l-.22-.528M246.408 136.805l-.528-.22M245.88 136.585h-19.278M226.601 136.585l-.537.22M226.064 136.805l-.22.528"/><path fill="#fff" fill-rule="evenodd" d="M247.386 147.629v1.021h.757v-1.021z" clip-rule="evenodd"/><path stroke="#7F7F7F" stroke-linecap="round" stroke-linejoin="round" stroke-miterlimit="10" stroke-width=".819" d="M247.386 147.629v1.021M247.386 148.65h.757M248.143 148.65v-1.021M248.143 147.629h-.757"/><path fill="#fff" fill-rule="evenodd" d="M247.386 155.194v1.021h.757v-1.021z" clip-rule="evenodd"/><path stroke="#7F7F7F" stroke-linecap="round" stroke-linejoin="round" stroke-miterlimit="10" stroke-width=".819" d="M247.386 155.194v1.021M247.386 156.215h.757M248.143 156.215v-1.021M248.143 155.194h-.757"/><path fill="#fff" fill-rule="evenodd" d="M247.386 151.125v1.594h.757v-1.594z" clip-rule="evenodd"/><path stroke="#7F7F7F" stroke-linecap="round" stroke-linejoin="round" stroke-miterlimit="10" stroke-width=".819" d="M247.386 151.125v1.594M247.386 152.719h.757M248.143 152.719v-1.594M248.143 151.125h-.757M224.708 123.577v91.654M247.386 123.577v91.654M227.738 139.227v11.149M228.486 151.134h13.607M242.85 150.376v-11.149M242.093 138.469h-13.607"/><path fill="#7F7F7F" fill-rule="evenodd" d="M228.143 139.227a.404.404 0 0 1-.405.405.404.404 0 0 1-.405-.405c0-.229.184-.405.405-.405.229 0 .405.185.405.405" clip-rule="evenodd"/><path stroke="#7F7F7F" stroke-linecap="round" stroke-linejoin="round" stroke-miterlimit="10" stroke-width=".819" d="M227.923 153.591v9.828M227.923 163.419h.193M228.116 163.419v-9.828M228.116 153.591h-.193M229.156 153.591v11.334M229.156 164.925h.184M229.34 164.925v-11.334M229.34 153.591h-.184M230.38 153.591v11.334M230.38 164.925h.193M230.573 164.925v-11.334M230.573 153.591h-.193M231.613 153.591v11.334M231.613 164.925h.184M231.798 164.925v-11.334M231.797 153.591h-.184M232.837 153.591v11.334M232.837 164.925h.185M233.022 164.925v-11.334M233.022 153.591h-.185M234.061 153.591v11.334M234.061 164.925h.194M234.255 164.925v-11.334M234.255 153.591h-.194M235.294 153.591v11.334M235.294 164.925h.185M235.479 164.925v-11.334M235.479 153.591h-.185M236.518 153.591v11.334M236.518 164.925h.194M236.712 164.925v-11.334M236.712 153.591h-.194M237.751 153.591v11.334M237.751 164.925h.185M237.936 164.925v-11.334M237.936 153.591h-.185M238.975 153.591v11.334M238.975 164.925h.194M239.169 164.925v-11.334M239.169 153.591h-.194M240.208 153.591v11.334M240.208 164.925h.185M240.393 164.925v-11.334M240.393 153.591h-.185M241.432 153.591v11.334M241.432 164.925h.194M241.626 164.925v-11.334M241.626 153.591h-.194M242.665 153.591v9.828M242.665 163.419h.185M242.85 163.419v-9.828M242.85 153.591h-.185M228.486 151.134a.75.75 0 0 1-.757-.758M242.85 150.376a.757.757 0 0 1-.757.758M242.093 138.469c.414 0 .757.344.757.758M227.738 139.227c0-.414.334-.758.757-.758"/><path stroke="#7F7F7F" stroke-linecap="round" stroke-linejoin="round" stroke-miterlimit="10" stroke-width=".819" d="M238.887 144.898a1.14 1.14 0 0 0-1.136-1.136 1.14 1.14 0 0 0-1.136 1.136 1.14 1.14 0 0 0 1.136 1.137 1.14 1.14 0 0 0 1.136-1.137" clip-rule="evenodd"/><path fill="#fff" fill-rule="evenodd" d="m238.015 151.363-.237.097-.097.246.097.238.237.097h7.486l.238-.097.097-.247-.097-.237-.238-.097z" clip-rule="evenodd"/><path stroke="#7F7F7F" stroke-linecap="round" stroke-linejoin="round" stroke-miterlimit="10" stroke-width=".819" d="m238.015 151.363-.238.097M237.778 151.46l-.097.246M237.681 151.706l.097.238M237.777 151.944l.238.097M238.015 152.041h7.486M245.501 152.041l.238-.097M245.739 151.944l.097-.247M245.836 151.697l-.097-.237M245.739 151.46l-.238-.097M245.501 151.363h-7.486"/><path fill="#fff" fill-rule="evenodd" d="M243.573 150.949v.414h1.928l.238.097.097.237-.097.247-.238.097h-1.928v.414h2.457v-1.506z" clip-rule="evenodd"/><path stroke="#7F7F7F" stroke-linecap="round" stroke-linejoin="round" stroke-miterlimit="10" stroke-width=".819" d="M243.573 150.949v.414M243.573 151.363h1.928M245.501 151.363l.238.097M245.739 151.46l.097.237M245.836 151.697l-.097.247M245.739 151.944l-.238.097M245.501 152.041h-1.928M243.573 152.041v.414M243.573 152.455h2.457M246.03 152.455v-1.506M246.03 150.949h-2.457"/><path fill="#fff" fill-rule="evenodd" d="M242.207 150.958v.405h1.33v-.405z" clip-rule="evenodd"/><path stroke="#7F7F7F" stroke-linecap="round" stroke-linejoin="round" stroke-miterlimit="10" stroke-width=".819" d="M242.207 150.958v.405M242.207 151.363h1.33M243.537 151.363v-.405M243.537 150.958h-1.33"/><path fill="#fff" fill-rule="evenodd" d="M242.207 152.446h1.33v-.405h-1.33z" clip-rule="evenodd"/><path stroke="#7F7F7F" stroke-linecap="round" stroke-linejoin="round" stroke-miterlimit="10" stroke-width=".819" d="M242.207 152.446h1.33M243.537 152.446v-.405M243.537 152.041h-1.33M242.207 152.041v.405"/><path fill="#CCC" fill-rule="evenodd" d="M143.455 272.863v22.678h-22.678v-22.678z" clip-rule="evenodd"/><path stroke="#7F7F7F" stroke-linecap="round" stroke-linejoin="round" stroke-miterlimit="10" stroke-width=".819" d="m126.044 291.111 2.105.854M124.142 277.645l2.104.846M136.762 282.736l2.105.845M139.51 295.541l.942-.731M124.142 277.645l1.787-1.4M126.044 291.111l1.788-1.391M136.762 282.736l1.788-1.401M140.558 295.541l-.106-.731M138.867 283.581l-.317-2.246M128.149 291.965l-.317-2.245M126.246 278.491l-.317-2.246"/><path fill="#7F7F7F" fill-rule="evenodd" d="M122.697 294.361a.404.404 0 0 1-.405.405.404.404 0 0 1-.405-.405c0-.229.185-.405.405-.405.229 0 .405.185.405.405M124.397 290.16a.404.404 0 0 1-.405.405.404.404 0 0 1-.405-.405c0-.229.185-.405.405-.405.229 0 .405.185.405.405M128.598 291.851a.404.404 0 0 1-.405.405.404.404 0 0 1-.405-.405c0-.229.185-.405.405-.405.229 0 .405.185.405.405M134.913 294.396a.404.404 0 0 1-.406.405.404.404 0 0 1-.405-.405.405.405 0 1 1 .811 0M126.088 285.95a.404.404 0 0 1-.405.405.404.404 0 0 1-.405-.405c0-.229.185-.405.405-.405.229 0 .405.185.405.405M130.298 287.65a.404.404 0 0 1-.405.405.404.404 0 0 1-.405-.405c0-.229.184-.405.405-.405.229 0 .405.185.405.405M136.603 290.186a.403.403 0 0 1-.405.405.403.403 0 0 1-.405-.405c0-.229.185-.405.405-.405.229 0 .405.185.405.405M140.813 291.886a.404.404 0 0 1-.405.405.404.404 0 0 1-.405-.405c0-.229.185-.405.405-.405.229 0 .405.185.405.405M121.077 279.195h.405a.405.405 0 0 1-.405.406.43.43 0 0 1-.3-.133v-.554a.404.404 0 0 1 .705.273h-.405zM127.788 281.741a.404.404 0 0 1-.405.405.404.404 0 0 1-.405-.405.404.404 0 1 1 .81 0M131.989 283.44a.405.405 0 1 1-.812 0 .405.405 0 0 1 .812 0M138.303 285.985a.405.405 0 1 1-.81.002.405.405 0 0 1 .81-.002M142.504 287.676a.404.404 0 0 1-.405.405.403.403 0 0 1-.405-.405c0-.229.185-.405.405-.405.229 0 .405.185.405.405M123.173 274.994a.405.405 0 1 1-.81.002.405.405 0 0 1 .81-.002M129.487 277.54a.403.403 0 0 1-.405.405.404.404 0 0 1-.405-.405c0-.229.185-.405.405-.405.229 0 .405.184.405.405M133.688 279.231a.404.404 0 0 1-.405.405.405.405 0 1 1 .405-.405M139.994 281.776a.404.404 0 0 1-.405.405.404.404 0 0 1-.405-.405c0-.229.185-.405.405-.405.229 0 .405.185.405.405M131.178 273.33a.404.404 0 0 1-.405.405.404.404 0 0 1-.405-.405c0-.229.185-.405.405-.405.229 0 .405.185.405.405M135.379 275.03a.404.404 0 0 1-.405.405.404.404 0 0 1-.405-.405c0-.229.185-.405.405-.405.229 0 .405.184.405.405M141.694 277.566a.404.404 0 0 1-.405.405.404.404 0 0 1-.405-.405c0-.229.184-.405.405-.405.229 0 .405.185.405.405M143.393 273.365a.403.403 0 0 1-.405.405.404.404 0 0 1-.405-.405c0-.229.185-.405.405-.405.229 0 .405.185.405.405M130.218 295.541h.405-.819c0-.229.185-.405.406-.405.229 0 .405.185.405.405h-.405zM133.759 294.211a.405.405 0 1 1-.812 0 .405.405 0 0 1 .812 0M138.973 291.992a.404.404 0 0 1-.406.405.404.404 0 0 1-.405-.405.405.405 0 1 1 .811 0M142.099 290.662a.404.404 0 0 1-.405.405.404.404 0 0 1-.405-.405c0-.229.185-.405.405-.405.229 0 .405.185.405.405M123.631 293.586a.404.404 0 0 1-.405.405.404.404 0 0 1-.405-.405c0-.229.185-.405.405-.405.229 0 .405.185.405.405" clip-rule="evenodd"/><path fill="#7F7F7F" fill-rule="evenodd" d="M128.853 291.367a.404.404 0 0 1-.405.405.405.405 0 1 1 .405-.405M131.98 290.037a.405.405 0 1 1-.812 0 .405.405 0 0 1 .812 0M137.194 287.817a.404.404 0 0 1-.406.405.403.403 0 0 1-.405-.405.405.405 0 1 1 .811 0M140.329 286.487a.405.405 0 1 1-.81.002.405.405 0 0 1 .81-.002M121.861 289.411a.404.404 0 0 1-.406.405.403.403 0 0 1-.405-.405.405.405 0 1 1 .811 0M127.074 287.192a.404.404 0 0 1-.405.405.404.404 0 0 1-.405-.405c0-.229.185-.405.405-.405.229 0 .405.185.405.405M130.21 285.862a.405.405 0 1 1-.812 0 .405.405 0 0 1 .812 0M135.423 283.643a.404.404 0 0 1-.405.405.404.404 0 0 1-.405-.405c0-.229.185-.405.405-.405.229 0 .405.185.405.405M138.55 282.313a.404.404 0 0 1-.405.405.404.404 0 0 1-.405-.405c0-.229.184-.405.405-.405.229 0 .405.185.405.405M143.455 280.094v-.397c-.026-.009-.053-.009-.088-.009a.404.404 0 0 0-.405.406c0 .229.185.405.405.405.026 0 .062 0 .088-.009zM125.304 283.018a.404.404 0 0 1-.405.405.405.405 0 1 1 .405-.405M128.431 281.688a.404.404 0 0 1-.406.405.405.405 0 1 1 .406-.405M133.644 279.468a.404.404 0 0 1-.405.405.403.403 0 0 1-.405-.405c0-.229.185-.405.405-.405.229 0 .405.185.405.405M136.779 278.139a.404.404 0 0 1-.405.405.405.405 0 1 1 .405-.405M141.993 275.919a.404.404 0 0 1-.405.405.404.404 0 0 1-.405-.405c0-.229.185-.405.405-.405.229 0 .405.185.405.405M123.525 278.843a.404.404 0 0 1-.405.405.404.404 0 0 1-.405-.405c0-.229.185-.405.405-.405.229 0 .405.185.405.405M126.66 277.513a.404.404 0 0 1-.405.405.404.404 0 0 1-.405-.405c0-.229.185-.405.405-.405.229 0 .405.185.405.405M131.874 275.294a.404.404 0 0 1-.405.405.404.404 0 0 1-.405-.405c0-.229.185-.405.405-.405.229 0 .405.185.405.405M135.009 273.964a.403.403 0 0 1-.405.405.404.404 0 0 1-.405-.405c0-.229.185-.405.405-.405.229 0 .405.185.405.405M121.746 274.669a.404.404 0 0 1-.405.405.405.405 0 1 1 .405-.405M124.882 273.339a.404.404 0 0 1-.406.405.404.404 0 0 1-.405-.405.405.405 0 1 1 .811 0" clip-rule="evenodd"/><path stroke="#000" stroke-linecap="round" stroke-linejoin="round" stroke-miterlimit="10" stroke-width=".819" d="M143.455 272.863v22.678M143.455 295.541h-22.678M120.777 295.541v-22.678M120.777 272.863h22.678M132.112 281.186v-11.344M129.091 284.207h-11.343M132.112 287.227v11.344M135.133 284.207h11.343"/><path fill="#000" fill-rule="evenodd" d="M132.517 284.207a.404.404 0 0 1-.405.405.405.405 0 1 1 .405-.405" clip-rule="evenodd"/><path fill="#fff" fill-rule="evenodd" d="M224.708 283.449v22.678h22.678v-22.678z" clip-rule="evenodd"/><path stroke="#7F7F7F" stroke-linecap="round" stroke-linejoin="round" stroke-miterlimit="10" stroke-width=".819" d="M224.708 283.449v22.678M224.708 306.127h22.678M247.386 306.127v-22.678M247.386 283.449h-22.678M226.98 283.449v22.678"/><path fill="#7F7F7F" fill-rule="evenodd" d="m238.051 296.836-2.317-1.727-2.131 1.515v-.704l1.145-.811c.238-.167.414-.281.546-.352a7 7 0 0 1-.502-.352l-1.18-.898v-.643l2.096 1.558 2.351-1.682v.731l-1.585 1.119a11 11 0 0 0-.299.194c.158.096.273.167.334.211l1.559 1.118-.009.714z" clip-rule="evenodd"/><path stroke="#7F7F7F" stroke-linecap="round" stroke-linejoin="round" stroke-miterlimit="10" stroke-width=".819" d="M232.026 119.041h-1.021M231.005 119.041h1.021M228.248 119.041h-1.021M227.227 119.041h1.021"/><path fill="#fff" fill-rule="evenodd" d="M235.294 92.585h-62.362v26.456h62.362z" clip-rule="evenodd"/><path stroke="#7F7F7F" stroke-linecap="round" stroke-linejoin="round" stroke-miterlimit="10" stroke-width=".819" d="M235.294 92.585h-62.362M172.932 92.585v26.456M172.932 119.041h62.362M235.294 119.041V92.585"/><path fill="#fff" fill-rule="evenodd" d="m228.019 116.928.899-.08.88-.237.819-.397.74-.528.643-.652.52-.757.378-.837.238-.881.079-.924V99.992l-.079-.916-.238-.89-.378-.836-.52-.757-.643-.652-.74-.529-.819-.387-.88-.238-.899-.088h-42.097l-1.893.176-1.841.502-1.726.81-1.559 1.11-1.338 1.374-1.093 1.585-.801 1.762-.502 1.867-.159 1.928.159 1.929.502 1.876.801 1.752 1.093 1.586 1.338 1.374 1.559 1.109 1.726.819 1.841.502 1.893.168z" clip-rule="evenodd"/><path stroke="#7F7F7F" stroke-linecap="round" stroke-linejoin="round" stroke-miterlimit="10" stroke-width=".819" d="m228.019 116.928.899-.08M228.918 116.848l.88-.237M229.798 116.611l.819-.397M230.617 116.214l.74-.528M231.357 115.686l.643-.652M232 115.034l.52-.757M232.52 114.277l.378-.837M232.898 113.44l.238-.881M233.136 112.559l.079-.924M233.215 111.635V99.992M233.215 99.992l-.079-.916M233.136 99.076l-.238-.89M232.898 98.187l-.378-.837M232.52 97.35l-.52-.758M232 96.592l-.643-.651M231.357 95.94l-.74-.528M230.617 95.412l-.819-.387M229.798 95.025l-.88-.238M228.918 94.787l-.899-.088M228.019 94.699h-42.097M185.922 94.699l-1.893.176M184.029 94.875l-1.841.502M182.188 95.377l-1.726.81M180.462 96.187l-1.559 1.11M178.903 97.297l-1.339 1.374M177.564 98.67l-1.092 1.586M176.472 100.256l-.801 1.761M175.671 102.017l-.502 1.868M175.169 103.885l-.159 1.928M175.01 105.813l.159 1.929M175.169 107.742l.502 1.876M175.671 109.618l.801 1.752M176.472 111.37l1.092 1.586M177.564 112.956l1.339 1.374M178.903 114.33l1.559 1.109M180.462 115.439l1.726.819M182.188 116.258l1.841.502M184.029 116.76l1.893.168M185.922 116.928h42.097"/><path stroke="#7F7F7F" stroke-linecap="round" stroke-linejoin="round" stroke-miterlimit="10" stroke-width=".819" d="M227.165 105.813a.944.944 0 0 0-.942-.942.937.937 0 0 0-.942.942c0 .529.422.943.942.943a.944.944 0 0 0 .942-.943" clip-rule="evenodd"/><path fill="#fff" fill-rule="evenodd" d="m234.352 104.871-1.595.15-.352.123-1.999.247-.264.14-.106.282.106.282.264.141 1.999.247.352.123 1.595.15.66-.273.282-.67-.282-.669z" clip-rule="evenodd"/><path stroke="#7F7F7F" stroke-linecap="round" stroke-linejoin="round" stroke-miterlimit="10" stroke-width=".819" d="m234.352 104.871-1.594.15M232.758 105.021l-.353.123M232.405 105.144l-1.999.247M230.406 105.391l-.264.141M230.142 105.531l-.106.282M230.036 105.813l.106.282M230.142 106.095l.264.141M230.406 106.236l1.999.247M232.405 106.483l.353.123M232.758 106.606l1.594.15M234.352 106.756l.66-.273M235.012 106.483l.282-.67M235.294 105.813l-.282-.669M235.012 105.144l-.66-.273M233.4 106.324h-.555M232.845 105.302h.555M233.4 105.302v1.022M232.846 106.324a.511.511 0 0 1 0-1.022"/><path stroke="#7F7F7F" stroke-linecap="round" stroke-linejoin="round" stroke-miterlimit="10" stroke-width=".819" d="M232.405 106.483a.8.8 0 0 1-.37-.67.81.81 0 0 1 .37-.669M216.588 36.644h.176M216.764 36.644h.423M217.187 36.644h.431M217.618 36.644h.177M215.038 36.644h.625M215.663 36.644h.925M217.794 36.644h.916M218.71 36.644h.635"/><path fill="#fff" fill-rule="evenodd" d="M224.179 52.32V36.644h-13.985V52.32l.167 1.532.485 1.462.784 1.295 1.021 1.066 1.031.713 1.118.51 1.18.318 1.207.105 1.215-.105 1.18-.317 1.119-.511 1.021-.713 1.031-1.066.784-1.295.484-1.462z" clip-rule="evenodd"/><path stroke="#7F7F7F" stroke-linecap="round" stroke-linejoin="round" stroke-miterlimit="10" stroke-width=".819" d="M224.179 52.32V36.644M224.179 36.644h-13.985M210.194 36.644V52.32M210.194 52.32l.167 1.532M210.362 53.852l.484 1.462M210.846 55.314l.784 1.295M211.63 56.609l1.021 1.066M212.651 57.675l1.031.713M213.682 58.388l1.118.51M214.8 58.899l1.18.317M215.98 59.216l1.207.105M217.187 59.322l1.215-.106M218.402 59.216l1.18-.317M219.582 58.899l1.119-.511M220.701 58.388l1.021-.713M221.722 57.675l1.031-1.066M222.753 56.609l.784-1.295M223.537 55.314l.484-1.462M224.021 53.853l.159-1.533M223.052 52.311V41.796M223.052 41.796h-5.865M217.187 41.796h-5.857M211.33 41.796V52.31M216.597 58.053h1.18M223.052 52.311c-.132 3.109-2.413 5.601-5.266 5.742M216.597 58.053c-2.854-.14-5.135-2.633-5.267-5.742"/><path fill="#fff" fill-rule="evenodd" d="m213.092 39.955.81.167.81.133.819.096.828.053.828.027.837-.027.819-.053.827-.096.811-.133.81-.167.793-.211.775-.247.757-.282v-2.571h-12.849v2.571l.757.282.775.247z" clip-rule="evenodd"/><path stroke="#7F7F7F" stroke-linecap="round" stroke-linejoin="round" stroke-miterlimit="10" stroke-width=".819" d="m213.092 39.955.81.167M213.902 40.122l.81.133M214.712 40.255l.819.096M215.531 40.351l.828.053M216.359 40.404l.828.027M217.187 40.43l.836-.026M218.023 40.404l.819-.053M218.843 40.351l.827-.096M219.67 40.255l.811-.133M220.481 40.122l.81-.167M221.291 39.955l.792-.211M222.083 39.744l.775-.247M222.858 39.497l.758-.282M223.616 39.215v-2.571M223.616 36.644h-12.849M210.767 36.644v2.571M210.767 39.215l.757.282M211.524 39.497l.775.247M212.299 39.744l.793.211M216.104 38.801l.722.705M217.557 39.506l.722-.705"/><path fill="#7F7F7F" fill-rule="evenodd" d="M216.676 38.167a.404.404 0 1 1-.81 0 .404.404 0 1 1 .81 0" clip-rule="evenodd"/><path stroke="#7F7F7F" stroke-linecap="round" stroke-linejoin="round" stroke-miterlimit="10" stroke-width=".819" d="M216.104 38.801a.35.35 0 0 1-.115-.264c0-.158.115-.3.282-.37M217.557 39.506a.54.54 0 0 1-.37.14.55.55 0 0 1-.37-.14M218.112 38.167c.176.07.281.212.281.37a.38.38 0 0 1-.114.264M217.187 38c.317 0 .634.053.924.167M216.262 38.167c.291-.114.608-.167.925-.167M188.846 36.653l-1.022-.01M187.824 36.644l1.022.009M185.068 36.644h-1.022M184.046 36.644h1.022"/><path fill="#fff" fill-rule="evenodd" d="m175.099 45.151.105 1.207.3 1.162.484 1.092.669.995.82.855.951.704 2.492 1.365 2.704.837 2.818.29 2.809-.29 2.713-.837 2.492-1.365.951-.704.819-.855.661-.995.493-1.092.3-1.162.096-1.198.009-8.155-.009-.062-.017-.053-.027-.061-.035-.053-.044-.044-.044-.035-.053-.027-.061-.017h-.053l-11-.01h-10.991l-.062.01-.061.017-.053.026-.053.036-.035.044-.036.053-.026.053-.018.061v.062z" clip-rule="evenodd"/><path stroke="#7F7F7F" stroke-linecap="round" stroke-linejoin="round" stroke-miterlimit="10" stroke-width=".819" d="m175.099 45.151.008-8.146M175.107 37.005v-.062M175.107 36.943l.018-.061M175.125 36.882l.026-.053M175.151 36.829l.036-.053M175.187 36.776l.035-.044M175.222 36.732l.053-.035M175.275 36.697l.052-.027M175.327 36.67l.062-.017M175.389 36.653l.062-.01M175.451 36.644h10.991M186.442 36.644l11 .009M197.442 36.653h.052M197.495 36.653l.061.017M197.556 36.67l.053.026M197.609 36.697l.044.035M197.653 36.732l.044.044M197.697 36.776l.035.053M197.732 36.829l.027.061M197.759 36.89l.017.053M197.776 36.943l.009.062M197.785 37.005l-.009 8.155M197.776 45.16l-.097 1.198M197.68 46.358l-.3 1.162M197.38 47.52l-.493 1.092M196.887 48.612l-.661.995M196.226 49.607l-.819.855M195.407 50.462l-.951.704M194.456 51.166l-2.492 1.365M191.964 52.531l-2.713.837M189.251 53.368l-2.809.29M186.442 53.659l-2.818-.291M183.624 53.368l-2.704-.837M180.92 52.531l-2.493-1.365M178.427 51.166l-.951-.704M177.476 50.462l-.819-.855M176.657 49.608l-.669-.996M175.988 48.612l-.484-1.092M175.504 47.52l-.3-1.162M175.204 46.358l-.105-1.207M176.648 45.151V43.03M196.235 43.029v2.131M194.518 41.259h-16.152M196.235 45.16l-.396 1.946M195.839 47.106l-1.163 1.788M194.676 48.894l-1.823 1.48M192.853 50.374l-2.342 1.065M190.511 51.44l-2.678.554M187.833 51.994h-2.791M185.042 51.994l-2.669-.555M182.373 51.44l-2.342-1.066M180.03 50.374l-1.823-1.489M178.207 48.885l-1.162-1.788M177.045 47.098l-.397-1.947"/><path stroke="#7F7F7F" stroke-linecap="round" stroke-linejoin="round" stroke-miterlimit="10" stroke-width=".819" d="M187.384 45.327a.943.943 0 1 0-1.882 0 .943.943 0 0 0 1.882 0" clip-rule="evenodd"/><path stroke="#7F7F7F" stroke-linecap="round" stroke-linejoin="round" stroke-miterlimit="10" stroke-width=".819" d="M194.518 41.259c.951 0 1.717.792 1.717 1.77M176.648 43.029c0-.978.767-1.77 1.718-1.77"/><path fill="#fff" fill-rule="evenodd" d="m187.384 39.127-.273-.67-.669-.272-.669.273-.273.67.149 1.584.124.362.255 1.999.132.273.282.106.282-.106.132-.273.255-2 .123-.36z" clip-rule="evenodd"/><path stroke="#7F7F7F" stroke-linecap="round" stroke-linejoin="round" stroke-miterlimit="10" stroke-width=".819" d="m187.384 39.127-.15 1.585M187.234 40.713l-.123.36M187.111 41.074l-.246 1.999M186.865 43.073l-.141.273M186.724 43.346l-.282.105M186.442 43.451l-.282-.105M186.16 43.346l-.132-.273M186.028 43.073l-.256-2M185.772 41.074l-.123-.361M185.649 40.712l-.149-1.585M185.5 39.127l.273-.67M185.772 38.458l.67-.273M186.442 38.185l.669.273M187.111 38.458l.273.67M185.931 40.07v.563M186.961 40.633v-.563M186.962 40.07h-1.031M186.962 40.633a.511.511 0 0 1-1.022 0"/><path stroke="#7F7F7F" stroke-linecap="round" stroke-linejoin="round" stroke-miterlimit="10" stroke-width=".819" d="M187.111 41.074a.8.8 0 0 1-.669.37.77.77 0 0 1-.67-.37M69.574 356.776h.907M62.476 356.776h.907M76.681 356.776h.907M83.788 356.776h.907M89.592 357.912h-.907M89.592 358.555h-.907M89.592 362.377h-.907M89.592 365.574h-.907M89.592 361.743h-.907M89.592 356.776h-.907M89.592 358.299h-.907M89.592 357.824h-.907M89.592 358.933h-.907M89.592 358.616h-.907M89.592 360.21h-.907M89.592 359.796h-.907M89.592 360.853h-.907M89.592 360.888h-.907M89.592 362.491h-.907M89.592 360.536h-.907M89.592 362.174h-.907M89.592 366.111h-.907M89.592 365.891h-.907M89.592 365.662h-.907M55.368 356.776h.907M48.261 356.776h.907M41.154 356.776h.907M34.047 356.776h.907M30.03 356.776h-.907M30.03 365.574h-.907M30.03 358.933h-.907M30.03 357.912h-.907M30.03 358.616h-.907M30.03 358.299h-.907M30.03 358.555h-.907M30.03 362.377h-.907M30.03 365.891h-.907M30.03 361.743h-.907M30.03 357.824h-.907M30.03 359.796h-.907M30.03 360.888h-.907M30.03 360.853h-.907M30.03 360.21h-.907M30.03 360.536h-.907M30.03 362.174h-.907M30.03 362.491h-.907M30.03 366.111h-.907M30.03 365.662h-.907M89.592 356.776v17.992M88.685 356.776v17.992M84.695 356.776v17.992M76.681 356.776v17.992M77.588 356.776v17.992M83.788 356.776v17.992M62.476 356.776v17.992M63.383 356.776v17.992M69.574 356.776v17.992M70.481 356.776v17.992M89.592 373.632h-.907M89.592 370.03h-.907M89.592 372.989h-.907M89.592 366.208h-.907M89.592 369.396h-.907M89.592 373.474h-.907M89.592 372.839h-.907M89.592 373.156h-.907M89.592 371.562h-.907M89.592 369.599h-.907M89.592 371.245h-.907M89.592 371.976h-.907M89.592 370.928h-.907M89.592 369.281h-.907M89.592 370.884h-.907M89.592 373.72h-.907M88.685 374.768H30.03M49.168 356.776v17.992M55.368 356.776v17.992M42.061 356.776v17.992M48.261 356.776v17.992M34.954 356.776v17.992M41.154 356.776v17.992M34.047 356.776v17.992M56.275 356.776v17.992M30.03 356.776v17.992M30.03 370.03h-.907M30.03 366.208h-.907M30.03 371.562h-.907M30.03 369.396h-.907M30.03 370.928h-.907M30.03 372.989h-.907M30.03 372.839h-.907M30.03 373.474h-.907M30.03 373.632h-.907M30.03 373.156h-.907M30.03 369.599h-.907M30.03 369.281h-.907M29.124 356.776v17.992M30.03 371.976h-.907M30.03 371.245h-.907M30.03 370.884h-.907M30.03 373.72h-.907M89.592 374.768v.898M53.616 374.768v.898M52.004 374.768v.898M29.124 375.667h60.468M42.818 374.768v.898M41.268 374.768v.898M38.063 374.768v.898M37.737 374.768v.898M37.42 374.768v.898M46.676 374.768v.898M44.738 374.768v.898M45.135 374.768v.898M41.911 374.768v.898M48.217 374.768v.898M48.103 374.768v.898M43.136 374.768v.898M41.154 374.768v.898M42.774 374.768v.898M48.534 374.768v.898M43.875 374.768v.898M41.48 374.768v.898M33.562 374.768v.898M32.012 374.768v.898M34.205 374.768v.898M32.655 374.768v.898M30.735 374.768v.898M32.338 374.768v.898M34.32 374.768v.898M32.7 374.768v.898M31.598 374.768v.898M29.124 374.768v.898M33.994 374.768v.898M30.62 374.768v.898M85.11 374.768v.898M76.752 374.768v.898M86.325 374.768v.898M80.935 374.768v.898M86.008 374.768v.898M75.853 374.768v.898M75.527 374.768v.898M86.65 374.768v.898M80.609 374.768v.898M87.936 374.768v.898M77.395 374.768v.898M84.466 374.768v.898M81.252 374.768v.898M88.086 374.768v.898M85.964 374.768v.898M75.897 374.768v.898M87.073 374.768v.898M84.669 374.768v.898M84.352 374.768v.898M77.509 374.768v.898M77.192 374.768v.898M73.282 374.768v.898M73.599 374.768v.898M71.67 374.768v.898M68.27 374.768v.898M68.587 374.768v.898M73.925 374.768v.898M73.537 374.768v.898M72.894 374.768v.898M71.996 374.768v.898M69.812 374.768v.898M69.697 374.768v.898M75.21 374.768v.898M74.796 374.768v.898M70.57 374.768v.898M70.129 374.768v.898M70.455 374.768v.898M62.872 374.768v.898M59.657 374.768v.898M64.413 374.768v.898M59.332 374.768v.898M55.157 374.768v.898M54.259 374.768v.898M66.73 374.768v.898M66.342 374.768v.898M59.014 374.768v.898M55.8 374.768v.898M63.515 374.768v.898M67.372 374.768v.898M66.985 374.768v.898M66.659 374.768v.898M64.73 374.768v.898M65.47 374.768v.898M63.075 374.768v.898M64.369 374.768v.898M54.294 374.768v.898M65.056 374.768v.898M62.749 374.768v.898M55.914 374.768v.898M55.597 374.768v.898M53.933 374.768v.898M53.193 374.768v.898M51.3 374.768v.898M50.075 374.768v.898M45.778 374.768v.898M46.993 374.768v.898M51.942 374.768v.898M50.392 374.768v.898M45.064 374.768v.898M43.461 374.768v.898M51.687 374.768v.898M52.33 374.768v.898M48.86 374.768v.898M48.974 374.768v.898M45.39 374.768v.898"/><path fill="#fff" fill-rule="evenodd" d="M29.573 235.416v35.281h75.59v-35.281z" clip-rule="evenodd"/><path stroke="#000" stroke-linecap="round" stroke-linejoin="round" stroke-miterlimit="10" stroke-width=".819" d="M29.573 235.416h75.59M29.573 235.416v20.159M105.163 235.416v20.159M29.573 255.575h75.59M29.573 255.575h75.59M29.573 270.697h75.59M29.573 255.575v15.122M105.163 255.575v15.122M67.372 255.575v15.122"/><path fill="#000" fill-rule="evenodd" d="M35.764 247.755a.3.3 0 0 1-.08.211.3.3 0 0 1-.193.062.5.5 0 0 1-.185-.062c-.053-.044-.08-.106-.08-.194v-6.711h-2.694v6.711c0 .088-.018.15-.08.212a.3.3 0 0 1-.193.061.5.5 0 0 1-.185-.061c-.053-.044-.08-.106-.08-.194v-6.984q0-.264.265-.264h3.223q.264 0 .264.264l.027 6.957zM39.621 245.06a.28.28 0 0 1 .185.088.28.28 0 0 1 .088.185.3.3 0 0 1-.061.185.24.24 0 0 1-.194.088h-2.686c-.08 0-.141-.018-.194-.08a.3.3 0 0 1-.062-.193.33.33 0 0 1 .062-.168c.044-.079.106-.105.194-.105zM43.083 243.906c.238.123.449.317.616.581.168.264.256.546.256.846v1.074c0 .449-.15.837-.476 1.154a1.56 1.56 0 0 1-1.145.458h-1.339c-.079 0-.14-.018-.193-.079a.3.3 0 0 1-.07-.194c0-.044.026-.097.07-.168.044-.079.105-.105.193-.105h1.34c.298 0 .545-.097.757-.308.21-.212.308-.458.308-.758v-1.074c0-.3-.097-.546-.308-.758a1.03 1.03 0 0 0-.767-.317h-.264c-.08 0-.14-.017-.194-.079a.3.3 0 0 1-.07-.194c0-.044.018-.097.07-.167.044-.079.106-.106.194-.106.3 0 .546-.097.758-.308.21-.211.308-.458.308-.757v-.538c0-.299-.097-.546-.309-.757a1.03 1.03 0 0 0-.766-.317h-1.074c-.08 0-.141-.018-.194-.079a.3.3 0 0 1-.07-.194c0-.044.017-.097.07-.167.044-.08.106-.106.194-.106h1.074a1.56 1.56 0 0 1 1.603 1.603v.8190000000000001l-.035.105a.8.8 0 0 1-.106.309q-.13.276-.431.563zM45.787 248.926a.6.6 0 0 1-.106.167.2.2 0 0 1-.141.044c-.08 0-.141-.017-.194-.079a.24.24 0 0 1-.08-.176l.01-.079.264-1.066a.28.28 0 0 1 .097-.167.25.25 0 0 1 .167-.053c.08 0 .141.017.194.079a.23.23 0 0 1 .088.185l-.009.079-.282 1.066zM52.55 247.755c0 .088-.018.149-.08.211a.3.3 0 0 1-.193.062.5.5 0 0 1-.185-.062c-.053-.044-.08-.106-.08-.194v-6.332l-1.144 1.154a.27.27 0 0 1-.185.079c-.08 0-.141-.018-.194-.079a.27.27 0 0 1-.08-.194.5.5 0 0 1 .08-.185l1.603-1.603a.27.27 0 0 1 .194-.079c.08 0 .14.018.194.079a.23.23 0 0 1 .088.185l-.018 6.975zM56.408 245.06a.28.28 0 0 1 .184.088.28.28 0 0 1 .089.185.3.3 0 0 1-.062.185.24.24 0 0 1-.194.088H53.74c-.08 0-.14-.018-.194-.08a.3.3 0 0 1-.061-.193.33.33 0 0 1 .061-.168c.044-.079.106-.105.194-.105zM59.006 244.936l1.682 2.66.044.15a.32.32 0 0 1-.088.194.28.28 0 0 1-.194.079.2.2 0 0 1-.123-.035.26.26 0 0 1-.097-.097l-1.603-2.537-.582.652v1.753c0 .088-.017.149-.079.211a.3.3 0 0 1-.194.062.5.5 0 0 1-.184-.062c-.053-.044-.08-.106-.08-.194v-4.826c0-.053.027-.106.08-.176a.23.23 0 0 1 .193-.097c.062 0 .132.018.185.062a.24.24 0 0 1 .088.193v2.29l2.22-2.439c.07-.071.132-.097.211-.097.07 0 .132.035.185.088a.26.26 0 0 1 .097.194c0 .07-.018.132-.08.185l-1.681 1.796zm6.12 2c0 .299-.097.546-.308.757a1.02 1.02 0 0 1-.757.308h-1.075c-.3 0-.546-.097-.757-.308a1.01 1.01 0 0 1-.308-.757v-3.224c0-.264.096-.502.308-.722a1 1 0 0 1 .766-.343h1.075c.299 0 .546.096.757.308.211.211.317.458.317.766zm-.52.008v-3.223a.55.55 0 0 0-.149-.387.53.53 0 0 0-.387-.15h-1.075a.56.56 0 0 0-.387.15.53.53 0 0 0-.15.387v3.223c0 .15.053.282.15.388a.54.54 0 0 0 .387.158h1.075a.52.52 0 0 0 .387-.158.53.53 0 0 0 .15-.388m5.452.802c0 .088-.026.15-.08.211a.3.3 0 0 1-.193.062.5.5 0 0 1-.185-.062c-.053-.044-.079-.106-.079-.194v-3.936l-1.118 1.673c-.071.097-.141.15-.23.15-.079 0-.15-.053-.22-.15l-1.118-1.673v3.936c0 .088-.018.15-.08.212a.3.3 0 0 1-.193.061.5.5 0 0 1-.185-.061c-.053-.044-.08-.106-.08-.194v-4.826a.272.272 0 0 1 .273-.273.2.2 0 0 1 .106.035c.044.009.08.044.106.097l1.383 2.078 1.382-2.078c.07-.088.141-.132.23-.132.035 0 .087.017.158.079.08.053.106.123.106.194l.008 4.808zM71.547 247.482c.07 0 .132.035.185.088a.28.28 0 0 1 .088.185.3.3 0 0 1-.062.185.24.24 0 0 1-.194.088c-.079 0-.14-.018-.193-.08a.3.3 0 0 1-.071-.193c0-.044.018-.097.07-.168.044-.079.106-.105.194-.105h-.018000000000000002M76.743 245.148v2.598c0 .088-.018.15-.08.211a.3.3 0 0 1-.193.071.4.4 0 0 1-.185-.071c-.053-.044-.08-.106-.08-.194v-6.983c0-.053.027-.106.08-.177a.24.24 0 0 1 .194-.097c.061 0 .132.018.184.062a.24.24 0 0 1 .089.194v3.487l2.747-3.646c.053-.079.124-.105.212-.105.07 0 .132.035.194.088.07.053.096.123.096.194a.25.25 0 0 1-.07.167l-1.911 2.536 1.937 4.166.01.062c0 .026 0 .044.008.052a.28.28 0 0 1-.088.185.27.27 0 0 1-.194.08l-.123-.036-.106-.123-1.823-3.901zm4.967-1.427h1.339c.299 0 .546-.106.757-.317s.317-.458.317-.757v-.538c0-.299-.097-.546-.308-.757a1.03 1.03 0 0 0-.766-.317h-1.34v2.695zm0 3.752h1.603c.282 0 .537-.097.757-.308.22-.212.326-.458.326-.767v-1.074c0-.273-.106-.52-.326-.74a1.04 1.04 0 0 0-.757-.326H81.71v3.224zm-.264.528q-.264 0-.264-.264v-6.984q0-.264.264-.264h1.603c.44 0 .827.15 1.144.475.15.15.273.326.353.529l.079.282.018.176.008.167v.537c0 .265-.044.494-.14.696a1.9 1.9 0 0 1-.459.564c.256.132.458.326.626.59a1.5 1.5 0 0 1 .238.828v1.074c0 .432-.168.802-.502 1.119-.326.317-.705.484-1.11.484zM88.72 245.06a.28.28 0 0 1 .185.088.28.28 0 0 1 .088.185.3.3 0 0 1-.062.185.24.24 0 0 1-.193.088h-2.686c-.08 0-.141-.018-.194-.08a.3.3 0 0 1-.062-.193.33.33 0 0 1 .062-.168c.044-.079.105-.105.194-.105zM92.181 243.906c.238.123.45.317.617.581s.255.546.255.846v1.074c0 .449-.15.837-.475 1.154a1.56 1.56 0 0 1-1.145.458h-1.339c-.08 0-.14-.018-.194-.079a.3.3 0 0 1-.07-.194c0-.044.026-.097.07-.168.044-.079.106-.105.194-.105h1.339c.3 0 .546-.097.757-.308.212-.212.308-.458.308-.758v-1.074c0-.3-.097-.546-.308-.758a1.03 1.03 0 0 0-.766-.317h-.264c-.08 0-.141-.017-.194-.079a.3.3 0 0 1-.07-.194c0-.044.017-.097.07-.167.044-.079.106-.106.194-.106.3 0 .546-.097.757-.308.212-.211.308-.458.308-.757v-.538c0-.299-.096-.546-.308-.757a1.03 1.03 0 0 0-.766-.317h-1.075c-.079 0-.14-.018-.193-.079a.3.3 0 0 1-.07-.194c0-.044.017-.097.07-.167.044-.08.105-.106.194-.106h1.074a1.56 1.56 0 0 1 1.603 1.603v.8190000000000001l-.035.105a.8.8 0 0 1-.106.309q-.13.276-.432.563zM33.598 265.025h-1.005c-.317 0-.59-.114-.845-.343a1.16 1.16 0 0 1-.37-.864v-3.223c0-.326.115-.599.344-.845a1.15 1.15 0 0 1 .854-.361h1.004c.053 0 .097.026.14.07.045.044.071.088.071.141a.22.22 0 0 1-.053.141c-.035.044-.079.061-.15.061h-1.003a.78.78 0 0 0-.573.229.78.78 0 0 0-.238.582v3.223c0 .22.08.414.238.573a.77.77 0 0 0 .573.237h1.004c.053 0 .097.027.14.062.045.044.071.088.071.141a.22.22 0 0 1-.053.141c-.035.044-.079.061-.15.061l-.008-.026zm3.09 0h-1.206a.78.78 0 0 1-.572-.238.77.77 0 0 1-.238-.572v-3.021c0-.044.018-.079.062-.132a.18.18 0 0 1 .15-.071c.052 0 .096.018.14.053s.07.08.07.15v3.021c0 .114.045.211.124.299.08.071.185.115.29.115h1.207v-3.426c0-.044.018-.079.062-.132a.18.18 0 0 1 .15-.071c.052 0 .096.018.14.053s.062.079.062.15v4.632a.78.78 0 0 1-.229.573.77.77 0 0 1-.572.237h-1.216c-.035 0-.079-.017-.15-.061a.22.22 0 0 1-.052-.141c0-.027.017-.071.053-.141.035-.044.079-.062.15-.062h1.215a.4.4 0 0 0 .273-.114.41.41 0 0 0 .114-.291l-.017-.801zm4.096-.194a.2.2 0 0 1-.062.159.22.22 0 0 1-.15.053.4.4 0 0 1-.14-.053c-.044-.035-.062-.08-.062-.15v-2.95l-.845 1.25c-.053.071-.106.115-.177.115-.061 0-.114-.044-.167-.115l-.845-1.25v2.95c0 .07-.018.115-.062.159a.22.22 0 0 1-.15.052.4.4 0 0 1-.14-.052c-.045-.036-.062-.08-.062-.15v-3.62c0-.061.017-.105.061-.15a.2.2 0 0 1 .15-.061q.04 0 .08.026a.12.12 0 0 1 .079.071l1.039 1.559 1.039-1.559c.053-.062.106-.097.176-.097.027 0 .07.017.115.061.061.045.079.089.079.15l.009 3.602zm3.681 0a.2.2 0 0 1-.061.159.22.22 0 0 1-.15.053.4.4 0 0 1-.141-.053c-.044-.035-.062-.08-.062-.15v-2.95l-.845 1.25c-.053.071-.106.115-.176.115-.062 0-.115-.044-.168-.115l-.845-1.25v2.95c0 .07-.018.115-.062.159a.22.22 0 0 1-.15.052.4.4 0 0 1-.14-.052c-.044-.036-.062-.08-.062-.15v-3.62c0-.061.018-.105.062-.15a.2.2 0 0 1 .15-.061q.039 0 .079.026a.12.12 0 0 1 .079.071l1.04 1.559 1.038-1.559c.053-.062.106-.097.176-.097.027 0 .07.017.115.061.062.045.08.089.08.15l.008 3.602zm2.836-.607v-2.819h-1.206a.43.43 0 0 0-.291.115.4.4 0 0 0-.115.29v2.414c0 .114.044.211.115.29.07.071.176.115.29.115h.81a.43.43 0 0 0 .291-.115.4.4 0 0 0 .115-.29zm.687.422c.097.036.15.097.15.194a.2.2 0 0 1-.062.15c-.035.044-.08.061-.14.061l-.071-.008a.7.7 0 0 1-.194-.115q-.038-.026-.167-.158a.74.74 0 0 1-.6.273h-.81a.78.78 0 0 1-.8-.802v-2.413c0-.194.07-.379.228-.546a.73.73 0 0 1 .581-.255h1.41c.132 0 .193.061.193.193v3.021c0 .079.027.168.07.256a.6.6 0 0 0 .194.167v-.009zM84.607 263.413h.608c.053 0 .097.027.141.071s.07.088.07.141a.22.22 0 0 1-.052.141c-.036.044-.08.061-.15.061h-.608v1.004a.2.2 0 0 1-.061.159.22.22 0 0 1-.15.053.4.4 0 0 1-.141-.053c-.044-.035-.062-.08-.062-.15v-1.004h-1.409a.2.2 0 0 1-.15-.062.2.2 0 0 1-.061-.149v-.053l.81-4.025a.17.17 0 0 1 .07-.123l.124-.044c.061 0 .106.017.15.061.043.036.061.08.061.141v.044l-.757 3.787h1.162v-1.012c0-.045.018-.08.062-.133a.18.18 0 0 1 .15-.07c.052 0 .096.018.14.053s.062.079.062.15l-.026 1.021zm4.492-3.787-1.215 5.24a1 1 0 0 1-.07.115l-.124.044a.26.26 0 0 1-.15-.053c-.044-.035-.062-.079-.062-.141l.01-.053 1.153-4.984h-1.964v.396a.21.21 0 0 1-.062.159.22.22 0 0 1-.15.052.4.4 0 0 1-.14-.052c-.044-.036-.062-.08-.062-.15v-.599c0-.132.07-.194.194-.194h2.413c.062 0 .106.018.15.053s.061.07.061.132l.01.053zM90.446 265.712a.4.4 0 0 1-.079.123.17.17 0 0 1-.106.035.2.2 0 0 1-.15-.061c-.043-.044-.061-.079-.061-.132l.009-.062.194-.801a.3.3 0 0 1 .07-.124.2.2 0 0 1 .123-.044c.062 0 .106.018.15.062.044.035.062.079.062.141l-.01.061-.21.802zM93.37 261.942a1.1 1.1 0 0 1 .458.441c.124.194.194.414.194.634v.81q.002.504-.352.863a1.17 1.17 0 0 1-.855.344h-1.004a.2.2 0 0 1-.15-.062.22.22 0 0 1-.052-.15c0-.035.017-.07.053-.123.035-.062.079-.079.15-.079h1.004a.78.78 0 0 0 .8-.802v-.81c0-.22-.07-.414-.228-.572a.78.78 0 0 0-.581-.238h-.194a.2.2 0 0 1-.15-.062.22.22 0 0 1-.053-.149c0-.036.018-.071.053-.124.035-.061.08-.079.15-.079.22 0 .414-.07.572-.229a.76.76 0 0 0 .23-.572v-.406c0-.22-.071-.413-.23-.572a.78.78 0 0 0-.58-.238h-.811a.2.2 0 0 1-.15-.061.22.22 0 0 1-.053-.15c0-.035.018-.071.053-.123.035-.062.08-.08.15-.08h.81c.335 0 .625.115.854.344.23.229.344.519.344.854v.616l-.027.08a.7.7 0 0 1-.079.229 1.4 1.4 0 0 1-.326.422v.044M98.822 261.405h-1.207v3.426a.2.2 0 0 1-.062.159.22.22 0 0 1-.15.053.4.4 0 0 1-.14-.053c-.044-.035-.062-.08-.062-.15v-3.62c0-.132.07-.193.194-.193h2.616c.22 0 .414.07.572.229a.77.77 0 0 1 .238.581v3.021a.2.2 0 0 1-.062.158.22.22 0 0 1-.15.053.4.4 0 0 1-.14-.053c-.044-.035-.062-.079-.062-.15v-3.02a.43.43 0 0 0-.115-.291.41.41 0 0 0-.29-.114h-.81v3.425a.21.21 0 0 1-.062.159.22.22 0 0 1-.15.053.4.4 0 0 1-.14-.053c-.045-.035-.062-.079-.062-.15l.008-3.452zM103.305 262.304h-1.586c-.035 0-.061-.018-.097-.044a.16.16 0 0 1-.035-.106c0-.027.009-.053.018-.062l1.462-2.21.053-.106.035-.088a.575.575 0 0 0-.185-.652.82.82 0 0 0-.493-.185.6.6 0 0 0-.344.106c-.105.062-.194.176-.255.343-.009.027-.027.053-.053.062a.2.2 0 0 1-.079.018.13.13 0 0 1-.097-.036.13.13 0 0 1-.035-.096l.008-.053a1 1 0 0 1 .353-.493.86.86 0 0 1 .493-.15q.382 0 .687.264a.87.87 0 0 1 .273.916 2 2 0 0 1-.132.291l-1.321 1.999h1.338c.036 0 .062.017.097.044a.14.14 0 0 1 .044.097.15.15 0 0 1-.035.097c-.018.026-.053.044-.097.044h.009z" clip-rule="evenodd"/><path stroke="#7F7F7F" stroke-linecap="round" stroke-linejoin="round" stroke-miterlimit="10" stroke-width=".819" d="M122.662 367.353v-5.214M122.662 358.017v-10.665M122.662 343.231v-10.666M122.662 328.444v-10.665M122.662 313.657v-10.665M122.662 298.87v-5.214M122.662 274.757v-2.88M122.662 267.755V257.09M122.662 252.968v-10.665M122.662 238.19v-10.674M122.662 223.404v-10.675M122.662 208.608v-10.665M122.662 193.83v-10.665M122.662 179.043v-10.665M122.662 164.256v-2.889M122.662 150.033v-2.88M122.662 143.031v-10.665M122.662 128.245v-10.666M122.662 113.466v-10.674M122.662 98.68V88.006M122.662 83.884V73.22M122.662 69.106V58.441M122.662 54.32V43.653M122.662 39.532v-2.888M141.562 150.033v-2.88M141.562 143.031v-10.665M141.562 128.245v-10.666M141.562 113.466v-10.674M141.562 98.68V88.006M141.562 83.884V73.22M141.562 69.106V58.441M141.562 54.32V43.653M141.562 39.532v-2.888M141.562 274.757v-2.88M141.562 267.755V257.09M141.562 252.968v-10.665M141.562 238.19v-10.674M141.562 223.404v-10.675M141.562 208.608v-10.665M141.562 193.83v-10.665M141.562 179.043v-10.665M141.562 164.256v-2.889M141.562 367.353v-5.214M141.562 358.017v-10.665M141.562 343.231v-10.666M141.562 328.444v-10.665M141.562 313.657v-10.665M141.562 298.87v-5.214M141.562 367.353h-7.389M130.051 367.353h-7.389M247.386 293.656h-6.491M236.774 293.656h-10.666M221.987 293.656h-10.665M207.2 293.656h-10.665M192.413 293.656h-10.665M177.626 293.656h-10.665M162.839 293.656h-10.665M148.052 293.656h-6.49M122.662 293.656h-9.881M108.668 293.656H98.003M93.881 293.656H83.216M79.094 293.656H68.43M64.307 293.656H53.642M49.52 293.656H38.855M34.734 293.656H24.068M19.947 293.656H9.282M5.16 293.656H.906M122.662 274.757h-4.773M113.767 274.757h-10.665M98.989 274.757H88.324M84.202 274.757H73.537M69.416 274.757H58.741M54.629 274.757H43.963M39.842 274.757H29.177M25.055 274.757H14.39M10.268 274.757H5.503M247.386 274.757h-6.491M236.774 274.757h-10.666M221.987 274.757h-10.665M207.2 274.757h-10.665M192.413 274.757h-10.665M177.626 274.757h-10.665M162.839 274.757h-10.665M148.052 274.757h-6.49M247.386 36.644h-6.491M236.774 36.644h-10.666M221.987 36.644h-10.665M207.2 36.644h-10.665M192.413 36.644h-10.665M177.626 36.644h-10.665M162.839 36.644h-10.665M148.052 36.644h-6.49M122.662 36.644h-4.773M113.767 36.644h-10.665M98.989 36.644H88.324M84.202 36.644H73.537M69.416 36.644H58.741M54.629 36.644h-9.063"/><path fill="#fff" fill-rule="evenodd" d="M132.112 327.642v1.92h8.164v-.484h-7.68v-1.436z" clip-rule="evenodd"/><path stroke="#7F7F7F" stroke-linecap="round" stroke-linejoin="round" stroke-miterlimit="10" stroke-width=".819" d="M132.596 327.642v1.436M132.596 329.078h7.68M140.276 329.078v.484M140.276 329.562h-8.164M132.112 329.562v-1.92"/><path fill="#fff" fill-rule="evenodd" d="M140.276 329.562h-2.88v.476h2.88z" clip-rule="evenodd"/><path stroke="#7F7F7F" stroke-linecap="round" stroke-linejoin="round" stroke-miterlimit="10" stroke-width=".819" d="M140.276 329.562v.476M140.276 330.038h-2.88M137.396 330.038v-.476M137.396 329.562h2.88"/><path fill="#fff" fill-rule="evenodd" d="M132.112 352.24v1.92h.484v-1.444h7.68v-.476z" clip-rule="evenodd"/><path stroke="#7F7F7F" stroke-linecap="round" stroke-linejoin="round" stroke-miterlimit="10" stroke-width=".819" d="M132.112 352.24h8.164M140.276 352.24v.476M140.276 352.716h-7.68M132.596 352.716v1.444M132.596 354.16h-.484M132.112 354.16v-1.92"/><path fill="#fff" fill-rule="evenodd" d="M137.396 352.24h2.88v-.484h-2.88z" clip-rule="evenodd"/><path stroke="#7F7F7F" stroke-linecap="round" stroke-linejoin="round" stroke-miterlimit="10" stroke-width=".819" d="M137.396 352.24v-.484M137.396 351.756h2.88M140.276 351.756v.484M140.276 352.24h-2.88"/><path fill="#fff" fill-rule="evenodd" d="M138.268 330.038v21.718h1.136v-21.718z" clip-rule="evenodd"/><path stroke="#7F7F7F" stroke-linecap="round" stroke-linejoin="round" stroke-miterlimit="10" stroke-width=".819" d="M138.268 330.038h1.136M139.404 330.038v21.718M139.404 351.756h-1.136M138.268 351.756v-21.718"/><path fill="#CCC" fill-rule="evenodd" d="M143.455 25.468v13.07h-22.678V25.476z" clip-rule="evenodd"/><path stroke="#7F7F7F" stroke-linecap="round" stroke-linejoin="round" stroke-miterlimit="10" stroke-width=".819" d="m125.841 36.934 2.105.846M136.559 28.541l2.096.854M125.841 36.934l1.788-1.4M136.559 28.541l1.788-1.391M127.946 37.78l-.317-2.246M138.655 29.396l-.308-2.246"/><path fill="#7F7F7F" fill-rule="evenodd" d="M122.151 34.962a.404.404 0 1 1-.81 0 .404.404 0 1 1 .81 0M128.466 37.498a.404.404 0 1 1-.81 0c0-.23.184-.405.405-.405.229 0 .405.185.405.405M123.851 30.752a.404.404 0 1 1-.81 0 .404.404 0 1 1 .81 0M130.157 33.297a.405.405 0 1 1-.813 0 .405.405 0 0 1 .813 0M134.366 34.997a.404.404 0 1 1-.81 0 .404.404 0 1 1 .81 0M140.672 37.533a.404.404 0 1 1-.81 0 .404.404 0 1 1 .81 0M125.542 26.542a.404.404 0 1 1-.81 0 .404.404 0 1 1 .81 0M131.856 29.087a.404.404 0 1 1-.81 0 .404.404 0 1 1 .81 0M136.057 30.787a.404.404 0 1 1-.81 0 .404.404 0 1 1 .81 0M142.372 33.332a.404.404 0 1 1-.81 0 .404.404 0 1 1 .81 0M137.757 26.577a.404.404 0 1 1-.81 0 .404.404 0 1 1 .81 0M133.274 38.132a.404.404 0 1 1-.81 0 .404.404 0 1 1 .81 0M138.488 35.913a.404.404 0 1 1-.81 0 .404.404 0 1 1 .81 0M141.623 34.574a.403.403 0 0 1-.405.405.404.404 0 0 1-.405-.405.404.404 0 1 1 .81 0M123.155 37.507a.404.404 0 1 1-.81 0 .404.404 0 1 1 .81 0M128.369 35.287a.404.404 0 1 1-.81 0 .404.404 0 1 1 .81 0M131.495 33.949a.404.404 0 1 1-.81 0 .404.404 0 1 1 .81 0M136.709 31.738a.404.404 0 1 1-.81 0 .404.404 0 1 1 .81 0M139.844 30.408a.404.404 0 1 1-.81 0 .404.404 0 1 1 .81 0M120.971 33.332h.405a.404.404 0 0 1-.405.405.36.36 0 0 1-.194-.053v-.713a.4.4 0 0 1 .194-.053c.229 0 .405.185.405.406h-.405zM126.59 31.113a.404.404 0 1 1-.81 0 .404.404 0 1 1 .81 0M129.725 29.783a.404.404 0 1 1-.81 0 .404.404 0 1 1 .81 0M134.939 27.564a.404.404 0 1 1-.81 0 .404.404 0 1 1 .81 0" clip-rule="evenodd"/><path fill="#7F7F7F" fill-rule="evenodd" d="M138.074 26.234a.404.404 0 1 1-.81 0 .404.404 0 1 1 .81 0M124.82 26.938a.404.404 0 1 1-.81 0c0-.229.184-.405.405-.405.229 0 .405.185.405.405M127.541 25.609h.405a.404.404 0 1 1-.784-.133h.775a.4.4 0 0 1 .027.133h-.42300000000000004" clip-rule="evenodd"/><path stroke="#000" stroke-linecap="round" stroke-linejoin="round" stroke-miterlimit="10" stroke-width=".819" d="M143.455 25.468v13.07M143.455 38.537h-22.678M120.777 38.537v-13.06M129.091 27.203h-11.343M132.112 30.223v11.335M135.133 27.203h11.343"/><path fill="#000" fill-rule="evenodd" d="M132.517 27.203a.404.404 0 1 1-.81 0 .404.404 0 1 1 .81 0" clip-rule="evenodd"/><path stroke="#000" stroke-linecap="round" stroke-linejoin="round" stroke-miterlimit="10" stroke-width=".819" d="m199.511 338.765-.493-2.844M199.018 335.921l-1.444-2.51M197.574 333.411l-2.211-1.85M195.363 331.561l-2.712-.995M192.651 330.566h-2.889M189.762 330.566l-2.721.987M187.041 331.552l-2.211 1.859M184.83 333.411l-1.444 2.492M183.386 335.903l-.502 2.845M182.884 338.748l.502 2.844M183.386 341.592l1.444 2.502M184.83 344.094l2.211 1.858M187.041 345.952l2.712.986M189.753 346.938l2.889.009M192.642 346.947l2.712-.986M195.354 345.961l2.211-1.859M197.565 344.102l1.444-2.501M199.009 341.601l.502-2.836"/><path fill="#000" fill-rule="evenodd" d="M190.66 340.932c0 .44-.158.828-.475 1.145a1.54 1.54 0 0 1-1.154.467h-.537c-.405 0-.784-.159-1.11-.467a1.53 1.53 0 0 1-.493-1.145l.009-4.298q.002-.644.467-1.118a1.55 1.55 0 0 1 1.145-.485h.537c.44 0 .828.159 1.145.476.317.308.475.696.466 1.145zm-.546.018.009-4.298c0-.3-.105-.546-.317-.758a1.02 1.02 0 0 0-.757-.317h-.537c-.3 0-.546.106-.758.317a1.02 1.02 0 0 0-.308.758l-.009 4.298c0 .281.106.537.326.757.22.211.476.317.757.317h.538c.281 0 .537-.097.757-.308.22-.212.335-.458.335-.766zm4.316-.555h.81c.071 0 .132.035.185.088a.28.28 0 0 1 .088.185.3.3 0 0 1-.07.185.24.24 0 0 1-.194.088h-.81v1.338c0 .088-.027.15-.08.212a.3.3 0 0 1-.193.061.5.5 0 0 1-.185-.07c-.053-.044-.08-.115-.08-.203v-1.338h-1.875a.26.26 0 0 1-.194-.08.27.27 0 0 1-.079-.193v-.071l1.083-5.363a.22.22 0 0 1 .097-.167l.167-.053c.079 0 .141.017.194.079a.23.23 0 0 1 .088.185v.053l-1.022 5.046h1.55v-1.356c0-.053.027-.106.079-.176a.23.23 0 0 1 .194-.097c.062 0 .132.017.185.07a.24.24 0 0 1 .088.194l-.035 1.365z" clip-rule="evenodd"/><path stroke="#000" stroke-linecap="round" stroke-linejoin="round" stroke-miterlimit="10" stroke-width=".819" d="m208.459 76.337-.502-2.845M207.957 73.492l-1.444-2.501M206.513 70.99l-2.211-1.858M204.302 69.132l-2.712-.986M201.59 68.146h-2.889M198.701 68.146l-2.712.986M195.989 69.132l-2.211 1.85M193.778 70.982l-1.453 2.501M192.325 73.483l-.502 2.845M191.823 76.328l.502 2.844M192.325 79.172l1.444 2.502M193.769 81.674l2.211 1.858M195.98 83.532l2.712.995M198.692 84.527h2.889M201.581 84.527l2.713-.987M204.293 83.54l2.22-1.858M206.513 81.682l1.435-2.5M207.948 79.181l.511-2.844"/><path fill="#000" fill-rule="evenodd" d="M199.608 78.512c0 .44-.158.828-.475 1.145a1.54 1.54 0 0 1-1.154.466h-.537c-.405 0-.784-.158-1.11-.466a1.53 1.53 0 0 1-.493-1.145l.009-4.298c0-.432.158-.801.466-1.118a1.55 1.55 0 0 1 1.145-.485h.538c.44 0 .827.159 1.144.476.318.308.467.695.467 1.145zm-.546.017.009-4.297c0-.3-.106-.546-.317-.758a1.02 1.02 0 0 0-.757-.317h-.538c-.299 0-.546.106-.757.317a1.02 1.02 0 0 0-.308.758l-.009 4.297c0 .282.106.538.326.758q.332.317.757.317h.537c.282 0 .538-.097.758-.308.22-.212.334-.458.334-.767zm2.167-2.175v2.14c0 .282.105.537.326.757q.332.318.757.318h.537c.3 0 .546-.097.758-.309.211-.211.308-.458.308-.757v-1.075c0-.299-.097-.546-.308-.757a1.03 1.03 0 0 0-.767-.317h-1.62zm-.529-.246c0-.75.185-1.427.573-2.053a3.53 3.53 0 0 1 1.752-1.444l.106-.017c.079 0 .132.035.176.088a.28.28 0 0 1 .079.202.25.25 0 0 1-.035.141c-.017.035-.061.062-.132.106l-.097.035-.123.053-.229.123a2.5 2.5 0 0 0-.396.282 3 3 0 0 0-.643.74 4.2 4.2 0 0 0-.344.722c-.097.264-.141.52-.141.749h1.603c.449 0 .837.158 1.145.466s.458.696.458 1.145v1.075q0 .675-.476 1.153a1.56 1.56 0 0 1-1.144.458h-.538c-.405 0-.783-.158-1.109-.467a1.53 1.53 0 0 1-.494-1.144l.009-2.405z" clip-rule="evenodd"/><path stroke="#000" stroke-linecap="round" stroke-linejoin="round" stroke-miterlimit="10" stroke-width=".819" d="m78.064 202.769-.502-2.854M77.562 199.915l-1.436-2.501M76.126 197.414l-2.21-1.849M73.916 195.565l-2.713-.995M71.203 194.57h-2.889M68.315 194.57l-2.713.986M65.602 195.556l-2.22 1.849M63.383 197.405l-1.445 2.51M61.938 199.915l-.502 2.836M61.436 202.751l.493 2.845M61.93 205.596l1.444 2.501M63.374 208.097l2.21 1.858M65.584 209.955l2.713.995M68.297 210.95h2.889M71.186 210.95l2.712-.986M73.898 209.964l2.22-1.858M76.117 208.106l1.445-2.501M77.562 205.605l.502-2.836"/><path fill="#000" fill-rule="evenodd" d="M69.46 204.935c0 .441-.16.828-.476 1.145a1.53 1.53 0 0 1-1.154.467h-.537c-.405 0-.784-.159-1.11-.467a1.53 1.53 0 0 1-.493-1.145l.009-4.298c0-.431.158-.801.466-1.118a1.55 1.55 0 0 1 1.145-.484h.538c.44 0 .828.158 1.145.475.317.308.475.696.466 1.145zm-.547.018.01-4.298c0-.299-.107-.546-.318-.757a1.02 1.02 0 0 0-.757-.317h-.538c-.299 0-.546.105-.757.317a1.02 1.02 0 0 0-.308.757l-.009 4.298c0 .282.106.537.326.757q.332.317.757.317h.537c.282 0 .538-.097.758-.308s.334-.458.334-.766zm3.99-2.519c.238.123.449.317.616.581q.254.397.256.846v1.074c0 .449-.159.837-.476 1.154a1.56 1.56 0 0 1-1.145.458h-1.338a.26.26 0 0 1-.194-.079.3.3 0 0 1-.062-.194c0-.044.027-.097.07-.167.045-.08.106-.106.194-.106h1.339c.3 0 .546-.097.757-.308.212-.212.309-.458.309-.758v-1.074c0-.3-.097-.546-.309-.758a1.03 1.03 0 0 0-.766-.317h-.264a.26.26 0 0 1-.194-.079.26.26 0 0 1-.061-.194c0-.044.017-.097.07-.167.044-.079.115-.106.194-.106.3 0 .546-.097.757-.308.212-.211.308-.458.308-.757v-.538c0-.299-.096-.546-.308-.757a1.03 1.03 0 0 0-.766-.317h-1.074a.26.26 0 0 1-.194-.079.27.27 0 0 1-.062-.203c0-.044.018-.097.07-.167.045-.079.115-.106.194-.106H71.9c.449 0 .837.159 1.145.467s.458.696.458 1.145v.819l-.035.106a.7.7 0 0 1-.115.308c-.088.185-.229.37-.432.563v.018z" clip-rule="evenodd"/><path stroke="#000" stroke-linecap="round" stroke-linejoin="round" stroke-miterlimit="10" stroke-width=".819" d="m202.787 202.954-.502-2.845M202.286 200.109l-1.436-2.501M200.85 197.608l-2.211-1.858M198.64 195.75l-2.722-.987M195.918 194.763h-2.88M193.038 194.763l-2.721.978M190.317 195.741l-2.211 1.858M188.106 197.599l-1.444 2.501M186.662 200.1l-.502 2.845M186.16 202.945l.493 2.836M186.653 205.781l1.445 2.51M188.098 208.291l2.21 1.858M190.308 210.149l2.713.986M193.021 211.135h2.888M195.909 211.135l2.713-.986M198.622 210.149l2.219-1.849M200.841 208.3l1.444-2.502M202.285 205.798l.502-2.844"/><path fill="#000" fill-rule="evenodd" d="M193.945 205.129c0 .44-.158.828-.475 1.145a1.54 1.54 0 0 1-1.154.467h-.537c-.405 0-.784-.159-1.11-.467a1.53 1.53 0 0 1-.493-1.145l.009-4.298c0-.431.158-.801.467-1.118a1.55 1.55 0 0 1 1.145-.485h.537c.44 0 .828.159 1.145.476.317.308.475.696.466 1.145zm-.546.018.009-4.298c0-.3-.106-.546-.317-.758a1.02 1.02 0 0 0-.757-.317h-.537c-.3 0-.547.106-.758.317a1.02 1.02 0 0 0-.308.758l-.009 4.298c0 .281.106.537.326.757q.332.317.757.317h.538c.281 0 .537-.097.757-.308.22-.212.335-.458.335-.766zm5.1 1.594-3.215-.009c-.07 0-.132-.035-.194-.088a.33.33 0 0 1-.079-.212c0-.052.009-.096.035-.132l2.951-4.456.114-.211.079-.185a1.3 1.3 0 0 0 .071-.397c0-.361-.141-.669-.441-.924a1.8 1.8 0 0 0-.458-.265 1.3 1.3 0 0 0-.528-.114 1.2 1.2 0 0 0-.696.211c-.211.132-.387.361-.519.696a.3.3 0 0 1-.097.132.7.7 0 0 1-.167.044.3.3 0 0 1-.194-.07.28.28 0 0 1-.08-.194l.009-.097c.159-.44.388-.766.705-.986.282-.194.616-.3.986-.3.52 0 .978.176 1.383.529.414.378.625.819.625 1.33 0 .176-.026.352-.079.519a2.8 2.8 0 0 1-.273.581l-2.677 4.043 2.703.009a.28.28 0 0 1 .185.088.28.28 0 0 1 .088.185.26.26 0 0 1-.07.185.24.24 0 0 1-.194.088h.027" clip-rule="evenodd"/><path stroke="#000" stroke-linecap="round" stroke-linejoin="round" stroke-miterlimit="10" stroke-width=".819" d="m130.976 76.337-.502-2.845M130.474 73.492l-1.436-2.501M129.038 70.99l-2.21-1.858M126.828 69.132l-2.713-.986M124.115 68.146h-2.888M121.226 68.146l-2.712.986M118.514 69.132l-2.219 1.85M116.295 70.982l-1.445 2.501M114.85 73.483l-.502 2.845M114.348 76.328l.494 2.844M114.842 79.172l1.444 2.502M116.286 81.674l2.21 1.858M118.496 83.532l2.713.995M121.209 84.527h2.889M124.098 84.527l2.712-.987M126.81 83.54l2.219-1.858M129.03 81.682l1.444-2.5M130.474 79.181l.502-2.844"/><path fill="#000" fill-rule="evenodd" d="M122.926 78.512c0 .44-.158.828-.475 1.145a1.54 1.54 0 0 1-1.154.467h-.537c-.405 0-.784-.159-1.11-.467a1.53 1.53 0 0 1-.493-1.145l.009-4.298q.002-.644.467-1.118a1.55 1.55 0 0 1 1.144-.485h.538c.44 0 .828.159 1.145.476.317.308.466.695.466 1.145zm-.546.017.009-4.297c0-.3-.106-.546-.317-.758a1.02 1.02 0 0 0-.757-.317h-.538c-.299 0-.546.106-.757.317a1.02 1.02 0 0 0-.308.758l-.009 4.297c0 .282.106.538.326.758q.332.317.757.317h.537c.282 0 .538-.097.758-.308.22-.212.335-.458.335-.767zm3.77 1.33c0 .088-.018.15-.08.212a.3.3 0 0 1-.193.061.5.5 0 0 1-.185-.061c-.053-.044-.08-.115-.08-.203l.009-6.332-1.145 1.154a.266.266 0 0 1-.378 0 .27.27 0 0 1-.08-.194q0-.053.08-.185l1.611-1.603a.28.28 0 0 1 .203-.08c.079 0 .141.018.194.08a.25.25 0 0 1 .088.185l-.036 6.975z" clip-rule="evenodd"/><path stroke="#000" stroke-linecap="round" stroke-linejoin="round" stroke-miterlimit="10" stroke-width=".819" d="m34.602 95.263-.502-2.845M34.1 92.418l-1.445-2.501M32.655 89.917l-2.21-1.859M30.445 88.059l-2.713-.987M27.732 87.072h-2.889M24.843 87.072l-2.712.978M22.13 88.05l-2.21 1.858M19.92 89.908l-1.453 2.501M18.467 92.41l-.502 2.844M17.965 95.254l.502 2.844M18.467 98.098l1.445 2.502M19.912 100.6l2.21 1.858M22.122 102.458l2.713.986M27.723 103.444l2.713-.986M30.436 102.458l2.22-1.85M32.655 100.608l1.445-2.5M34.1 98.107l.502-2.844"/><path fill="#000" fill-rule="evenodd" d="M26.006 97.438c0 .44-.159.828-.476 1.145a1.54 1.54 0 0 1-1.153.466h-.538c-.405 0-.783-.158-1.11-.466a1.53 1.53 0 0 1-.492-1.145l.008-4.298c0-.431.159-.801.467-1.118a1.55 1.55 0 0 1 1.145-.485h.537c.44 0 .828.159 1.145.476.317.308.476.695.467 1.145zm-.546.017.009-4.297c0-.3-.106-.546-.317-.758a1.02 1.02 0 0 0-.758-.317h-.537c-.3 0-.546.106-.757.317a1.02 1.02 0 0 0-.309.758l-.008 4.297c0 .282.105.538.325.758.22.211.476.317.758.317h.537c.282 0 .537-.097.758-.308.22-.212.334-.458.334-.766zm4.852-.017c0 .44-.158.828-.475 1.145a1.5 1.5 0 0 1-1.136.466h-1.356c-.08 0-.141-.017-.194-.079a.26.26 0 0 1-.062-.194c0-.043.027-.096.07-.167.045-.08.115-.105.203-.105h1.357c.299 0 .546-.097.757-.309.211-.211.308-.458.308-.757v-1.075c0-.299-.097-.546-.308-.757a1.02 1.02 0 0 0-.758-.308h-1.356q-.264 0-.264-.264l.009-3.224q0-.264.264-.264l2.686.009a.28.28 0 0 1 .185.088.28.28 0 0 1 .088.185c0 .07-.026.132-.07.185a.26.26 0 0 1-.203.088h-2.422l-.009 2.695h1.075c.44 0 .81.158 1.127.475s.476.696.467 1.136v1.049z" clip-rule="evenodd"/></g><defs><clipPath id="a"><path fill="#fff" d="M.5.5h258.635v375.58H.5z"/></clipPath></defs></svg>